<svg id="Layer_2" data-name="Layer 2" xmlns="http://www.w3.org/2000/svg" width="418.737" height="303.676" viewBox="0 0 418.737 303.676">
  <g id="Robot_Parts" data-name="Robot Parts">
    <rect id="Rectangle_17621" data-name="Rectangle 17621" width="418.737" height="0.209" transform="translate(0 274.231)" fill="#ebebeb"/>
    <rect id="Rectangle_17622" data-name="Rectangle 17622" width="18.156" height="0.209" transform="translate(358.623 287.706)" fill="#ebebeb"/>
    <rect id="Rectangle_17623" data-name="Rectangle 17623" width="28.566" height="0.209" transform="translate(260.086 283.359)" fill="#ebebeb"/>
    <rect id="Rectangle_17624" data-name="Rectangle 17624" width="37.293" height="0.209" transform="translate(332.133 279.934)" fill="#ebebeb"/>
    <rect id="Rectangle_17625" data-name="Rectangle 17625" width="9.329" height="0.209" transform="translate(135.57 284.155)" fill="#ebebeb"/>
    <rect id="Rectangle_17626" data-name="Rectangle 17626" width="32.151" height="0.209" transform="translate(95.958 284.155)" fill="#ebebeb"/>
    <rect id="Rectangle_17627" data-name="Rectangle 17627" width="23.198" height="0.209" transform="translate(55.533 280.621)" fill="#ebebeb"/>
    <path id="Path_49692" data-name="Path 49692" d="M204.691,236.879H42.992A4.782,4.782,0,0,1,38.21,232.1V4.782A4.782,4.782,0,0,1,42.992,0h161.7a4.782,4.782,0,0,1,4.782,4.782V232.1A4.782,4.782,0,0,1,204.691,236.879ZM42.992.209a4.573,4.573,0,0,0-4.573,4.573V232.1a4.573,4.573,0,0,0,4.573,4.573h161.7a4.573,4.573,0,0,0,4.573-4.573V4.782A4.573,4.573,0,0,0,204.691.209Z" transform="translate(-6.21 0)" fill="#ebebeb"/>
    <path id="Path_49693" data-name="Path 49693" d="M421,236.879H259.282A4.782,4.782,0,0,1,254.5,232.1V4.782A4.782,4.782,0,0,1,259.282,0H421a4.782,4.782,0,0,1,4.765,4.782V232.1A4.782,4.782,0,0,1,421,236.879ZM259.282.209a4.573,4.573,0,0,0-4.573,4.573V232.1a4.573,4.573,0,0,0,4.573,4.573H421a4.573,4.573,0,0,0,4.573-4.573V4.782A4.573,4.573,0,0,0,421,.209Z" transform="translate(-41.363 0)" fill="#ebebeb"/>
    <path id="Path_49694" data-name="Path 49694" d="M187.706,130.163l.377-11-6.758-2.211a65.573,65.573,0,0,0-1.8-11.013l5.728-4.187-3.886-10.41-7.085.569a64.852,64.852,0,0,0-5.862-9.505l3.668-6.122-7.537-8.048-6.331,3.241a69.124,69.124,0,0,0-9.095-6.574l1.022-7.026L140.1,53.308,135.489,58.7A67.969,67.969,0,0,0,124.6,56.189L122.927,49.3l-11.038-.377-2.244,6.767a67.986,67.986,0,0,0-11.055,1.8l-4.254-5.695L84.01,55.611l.569,7.085a67.409,67.409,0,0,0-9.505,5.921l-6.1-3.66L60.9,72.495l3.241,6.365A64.846,64.846,0,0,0,57.6,87.938l-7.026-1.055-4.589,10.05,5.427,4.606A65.641,65.641,0,0,0,48.9,112.426l-6.976,1.725-.377,11,6.784,2.211a65.029,65.029,0,0,0,1.8,11.046L44.406,142.6,48.3,152.934l7.085-.569a64.854,64.854,0,0,0,5.862,9.505l-3.668,6.122,7.537,8.048,6.331-3.241a67.416,67.416,0,0,0,9.078,6.566l-1.055,7.026,10.05,4.564,4.631-5.393a67.97,67.97,0,0,0,10.887,2.512l1.675,6.892,11.038.377,2.177-6.758a67.978,67.978,0,0,0,11.046-1.8l4.187,5.695,10.334-3.861-.544-7.085a69.132,69.132,0,0,0,9.505-5.929l6.1,3.668,8.082-7.537-3.241-6.365a64.847,64.847,0,0,0,6.532-9.078l7.026,1.055,4.589-10.05-5.427-4.606a64.963,64.963,0,0,0,2.512-10.887Zm-74.368,35.651a45.153,45.153,0,1,1,.008,0Z" transform="translate(-6.753 -7.951)" fill="#ebebeb"/>
    <path id="Path_49695" data-name="Path 49695" d="M433.02,93.739l2.772-2.588-1.105-2.186a22.613,22.613,0,0,0,2.219-3.157l2.429.368,1.574-3.467-1.868-1.591a22.36,22.36,0,0,0,.879-3.752l2.387-.595.126-3.8-2.337-.754a23.842,23.842,0,0,0-.611-3.811l1.968-1.466-1.34-3.559-2.437.193a23.451,23.451,0,0,0-2.035-3.283l1.265-2.094-2.6-2.78-2.194,1.08a23.448,23.448,0,0,0-3.132-2.253l.352-2.429-3.459-1.583L424.285,52.1a23.249,23.249,0,0,0-3.76-.837l-.595-2.378-3.8-.134-.762,2.345a22.36,22.36,0,0,0-3.81.62L410.1,49.747l-3.568,1.332.2,2.445a22.611,22.611,0,0,0-3.283,2.035l-2.11-1.265-2.772,2.588,1.114,2.194a22.439,22.439,0,0,0-2.253,3.132L395,61.84l-1.574,3.467,1.868,1.591a22.365,22.365,0,0,0-.879,3.752l-2.387.595-.126,3.8,2.337.754a23.252,23.252,0,0,0,.611,3.811l-1.968,1.457,1.34,3.559,2.445-.184a23.452,23.452,0,0,0,2.018,3.291l-1.265,2.094,2.6,2.78,2.177-1.114a23.452,23.452,0,0,0,3.132,2.253l-.36,2.42,3.459,1.583,1.591-1.859a23.838,23.838,0,0,0,3.76.837l.595,2.378,3.8.134.762-2.345a22.36,22.36,0,0,0,3.81-.62l1.457,1.968,3.568-1.332-.2-2.445a22.411,22.411,0,0,0,3.283-2.035ZM413.205,77.718a5.418,5.418,0,1,1,7.655.26,5.418,5.418,0,0,1-7.655-.26Z" transform="translate(-63.694 -7.923)" fill="#ebebeb"/>
    <path id="Path_49696" data-name="Path 49696" d="M298.028,217.8l-8.659-5.98h0a47.577,47.577,0,0,0-3.484-9.02l2.219-8.71-12.562-13.45-8.844,1.616a47.611,47.611,0,0,0-8.768-4.137h0l-5.377-9.053-18.424-.628-5.98,8.659h0a47.587,47.587,0,0,0-9.036,3.534l-8.7-2.219-13.45,12.562,1.616,8.827h0a46.647,46.647,0,0,0-4.087,8.785l-9.053,5.377-.628,18.424,8.668,5.988a46.134,46.134,0,0,0,3.476,9.061h0l-2.211,8.685,12.562,13.45,8.785-1.608a47.973,47.973,0,0,0,8.835,4.1h0l5.368,9.036,18.424.628,5.98-8.651a47.934,47.934,0,0,0,9.087-3.484h0l8.668,2.211,13.45-12.562-1.616-8.827a46.656,46.656,0,0,0,4.087-8.793h0l9.053-5.377ZM240.7,245.764a21.453,21.453,0,1,0-.008,0Z" transform="translate(-30.037 -27.376)" fill="#ebebeb"/>
    <path id="Path_49697" data-name="Path 49697" d="M333.439,156.99h-.059l-14.505-.494a1.767,1.767,0,0,1-1.457-.837l-3.9-6.574a39.715,39.715,0,0,1-6.1-2.831l-6.264,1.122a1.759,1.759,0,0,1-1.608-.536l-9.907-10.6a1.767,1.767,0,0,1-.419-1.675l1.583-6.206a38.416,38.416,0,0,1-2.4-6.256l-6.306-4.355a1.767,1.767,0,0,1-.762-1.516l.494-14.505a1.767,1.767,0,0,1,.837-1.457l6.591-3.911a38.768,38.768,0,0,1,2.822-6.072l-1.156-6.306a1.767,1.767,0,0,1,.536-1.608l10.594-9.882a1.767,1.767,0,0,1,1.675-.419l6.222,1.591a39.278,39.278,0,0,1,6.239-2.4l4.355-6.306a1.675,1.675,0,0,1,1.516-.762l14.505.494a1.767,1.767,0,0,1,1.457.837l3.911,6.591a39.361,39.361,0,0,1,6.055,2.822l6.323-1.156a1.767,1.767,0,0,1,1.608.536l9.882,10.653a1.767,1.767,0,0,1,.419,1.675l-1.591,6.231a39.284,39.284,0,0,1,2.4,6.239l6.3,4.355a1.767,1.767,0,0,1,.762,1.516l-.494,14.505a1.767,1.767,0,0,1-.837,1.457l-6.591,3.911a38.746,38.746,0,0,1-2.822,6.063l1.156,6.315a1.767,1.767,0,0,1-.536,1.608l-10.6,9.9a1.759,1.759,0,0,1-1.675.419l-6.155-1.633a39.668,39.668,0,0,1-6.273,2.4l-4.346,6.3A1.767,1.767,0,0,1,333.439,156.99Zm-13.475-4,12.562.427,4.187-6.03a1.767,1.767,0,0,1,1-.7,36.1,36.1,0,0,0,6.825-2.621h0a1.759,1.759,0,0,1,1.223-.126l5.862,1.5,9.212-8.584-1.055-6a1.767,1.767,0,0,1,.226-1.231,35.174,35.174,0,0,0,3.057-6.557,1.775,1.775,0,0,1,.787-.98l6.3-3.744.427-12.562-6.03-4.187a1.767,1.767,0,0,1-.67-.9v-.142a35.733,35.733,0,0,0-2.6-6.742,1.767,1.767,0,0,1-.134-1.239l1.507-5.929-8.668-9.212-6.021,1.105a1.767,1.767,0,0,1-1.223-.218,35.793,35.793,0,0,0-6.574-3.074,1.935,1.935,0,0,1-.368-.176,1.767,1.767,0,0,1-.595-.6l-3.7-6.248-12.562-.427-4.187,6.03a1.767,1.767,0,0,1-1.038.712,35.81,35.81,0,0,0-6.742,2.6,1.767,1.767,0,0,1-1.239.134l-5.954-1.516-9.212,8.584,1.1,6a1.767,1.767,0,0,1-.159,1.105l-.084.142a35.176,35.176,0,0,0-3.057,6.583,1.767,1.767,0,0,1-.771.938l-6.306,3.743-.427,12.562,6.038,4.187a1.767,1.767,0,0,1,.7,1,34.855,34.855,0,0,0,2.6,6.8,1.733,1.733,0,0,1,.142.377,1.766,1.766,0,0,1,0,.837l-1.507,5.9,8.584,9.212,5.98-1.1a1.775,1.775,0,0,1,1.214.218,36.228,36.228,0,0,0,6.608,3.065,1.767,1.767,0,0,1,.98.779Zm20.753-79.4Zm-12.989,63.522h-.93a26.439,26.439,0,1,1,.93,0Zm0-49.486a22.989,22.989,0,1,0,.837,0Z" transform="translate(-45.725 -10.432)" fill="#ebebeb"/>
    <path id="Path_49698" data-name="Path 49698" d="M381.961,48.434l-6.013-1.616-1.608-6,2.353-2.353,2.479,5.142,5.142,2.479Z" transform="translate(-60.84 -6.251)" fill="#e0e0e0"/>
    <path id="Path_49699" data-name="Path 49699" d="M383.111,43.932a2.806,2.806,0,1,0-3.961-3.961l2.99-4.48,4.012,2.027.837,4.187Z" transform="translate(-61.622 -5.768)" fill="#e0e0e0"/>
    <path id="Path_49700" data-name="Path 49700" d="M376.58,38.145l4.405-4.405,6,1.641,1.616,6-4.405,4.405-6-1.616Zm8,3.6a1.981,1.981,0,1,0,0,.025Z" transform="translate(-61.204 -5.484)" fill="#f0f0f0"/>
    <path id="Path_49701" data-name="Path 49701" d="M89.975,230.713l3.224-.863.863-3.224-1.256-1.256-1.332,2.755-2.764,1.332Z" transform="translate(-14.418 -36.629)" fill="#e0e0e0"/>
    <path id="Path_49702" data-name="Path 49702" d="M89.584,228.3a1.507,1.507,0,1,1,2.127-2.127l-1.6-2.4-2.2,1.08-.469,2.261Z" transform="translate(-14.211 -36.369)" fill="#e0e0e0"/>
    <path id="Path_49703" data-name="Path 49703" d="M92.653,225.212l-2.362-2.362-3.224.837-.837,3.224,2.32,2.387,3.224-.837Zm-4.288,1.951a1.507,1.507,0,1,1,2.127,0A1.507,1.507,0,0,1,88.366,227.163Z" transform="translate(-14.015 -36.219)" fill="#f0f0f0"/>
    <path id="Path_49704" data-name="Path 49704" d="M76.261,30.123l2.672,2.672a1.8,1.8,0,0,0,2.512,0h0a1.8,1.8,0,0,0,0-2.512l-2.672-2.672a1.8,1.8,0,0,0-2.512,0h0A1.8,1.8,0,0,0,76.261,30.123Z" transform="translate(-12.311 -4.405)" fill="#f0f0f0"/>
    <ellipse id="Ellipse_1413" data-name="Ellipse 1413" cx="3.97" cy="3.727" rx="3.97" ry="3.727" transform="translate(58.331 20.398) rotate(-19.76)" fill="#e0e0e0"/>
    <rect id="Rectangle_17628" data-name="Rectangle 17628" width="1.147" height="8.458" transform="translate(59.535 24.531) rotate(-109.76)" fill="#f0f0f0"/>
    <ellipse id="_Path_" data-name="&lt;Path&gt;" cx="162.378" cy="9.48" rx="162.378" ry="9.48" transform="translate(46.991 284.716)" fill="#f5f5f5"/>
    <path id="Path_49705" data-name="Path 49705" d="M222.45,230.427c1.164-18.759-.98-52.87,34.286-48.356,37.8,4.841,26.983,49.042,26.983,49.042Z" transform="translate(-36.154 -29.525)" fill="#263238"/>
    <circle id="Ellipse_1414" data-name="Ellipse 1414" cx="15.393" cy="15.393" r="15.393" transform="translate(195.24 158.844)" fill="#fff"/>
    <path id="Path_49706" data-name="Path 49706" d="M250.853,189.665c-7.286-1.248-15.075,4.129-15.853,9.572l28.9,2.655C262.879,195.686,256.632,190.653,250.853,189.665Z" transform="translate(-38.194 -30.796)" fill="#263238"/>
    <ellipse id="Ellipse_1415" data-name="Ellipse 1415" cx="7.294" cy="4.531" rx="7.294" ry="4.531" transform="translate(212.995 180.683) rotate(-87.06)" fill="#263238"/>
    <path id="Path_49707" data-name="Path 49707" d="M248.36,221.12a16.23,16.23,0,1,1,16.23-16.264A16.23,16.23,0,0,1,248.36,221.12Zm0-30.777a14.555,14.555,0,1,0,14.555,14.513A14.555,14.555,0,0,0,248.36,190.343Z" transform="translate(-37.727 -30.662)" fill="#ff7800"/>
    <path id="Path_49708" data-name="Path 49708" d="M290.394,234.667h-.1a.419.419,0,0,1-.31-.5c0-.109,2.7-11.465-.075-22.947a.43.43,0,0,1,.837-.193,56.317,56.317,0,0,1,.075,23.34A.419.419,0,0,1,290.394,234.667Z" transform="translate(-47.116 -34.243)" fill="#fff" opacity="0.3"/>
    <path id="Path_49709" data-name="Path 49709" d="M286.843,202.392a.419.419,0,0,1-.377-.243,29.594,29.594,0,0,0-3.97-6.415.419.419,0,0,1,.645-.528,30.418,30.418,0,0,1,4.087,6.591.419.419,0,0,1-.377.595Z" transform="translate(-45.902 -31.706)" fill="#fff" opacity="0.3"/>
    <path id="Path_49710" data-name="Path 49710" d="M127.879,338.7h-.31a4.189,4.189,0,1,1,.226-8.375h.084c2.42,0,8.241-2.94,20.418-22.134a4.187,4.187,0,0,1,6.289-.913,173.356,173.356,0,0,0,31.1,21.339,4.187,4.187,0,1,1-3.785,7.47A178.567,178.567,0,0,1,152.76,316.7C142.551,332,134.981,338.7,127.879,338.7Z" transform="translate(-20.071 -49.773)" fill="#263238"/>
    <path id="Path_49711" data-name="Path 49711" d="M158.093,297.5a2.365,2.365,0,0,1-2.5-2.839c.595-4.187-.142-19.789-5.418-31.933a2.512,2.512,0,0,1,.888-3.082c11.473-7.814,35.911-8.752,36.941-8.785a2.514,2.514,0,0,1,.176,5.025c-.226,0-21.59.837-32.569,6.867,4.673,12.093,5.737,27.168,4.958,32.62A2.512,2.512,0,0,1,158.093,297.5Z" transform="translate(-24.374 -40.771)" fill="#263238"/>
    <path id="Path_49712" data-name="Path 49712" d="M160.915,302.116c-1.675-3.944-9.212-3.492-13.626-.117-2.362,1.809-5.561,7.236-5.862,9.212a2.965,2.965,0,0,0,3.35,3.551c2.889-.251,6.851-4.447,6.851-4.447-2.638,2.588.762,4.413,5.862.67C160.27,308.908,162.783,306.529,160.915,302.116Z" transform="translate(-22.975 -48.646)" fill="#4e22d0"/>
    <path id="Path_49713" data-name="Path 49713" d="M336.629,236.112h-.117a.419.419,0,0,1-.285-.519c1.114-3.886,2.337-6.256,3.936-7.579a4.355,4.355,0,0,1,.126-2.73,5.393,5.393,0,0,1,1.976-2.512,2.144,2.144,0,0,1-.494-1.993,5.167,5.167,0,0,1,1.792-2.646,1.918,1.918,0,0,1-.477-1.265c0-2.512,4.615-6.306,9.849-7.018a.41.41,0,0,1,.469.36.419.419,0,0,1-.36.469c-4.975.678-9.145,4.279-9.128,6.181a1.089,1.089,0,0,0,.3.754,10.267,10.267,0,0,1,7.772-1.558c2.571.494,3.618,1.038,3.492,1.817-.226,1.466-5.7,1.775-9.371,1.332a5.143,5.143,0,0,1-1.884-.544,4.522,4.522,0,0,0-1.675,2.286,1.323,1.323,0,0,0,.419,1.373,9.48,9.48,0,0,1,6.633-.494c3.8.837,3.944,1.3,4.028,1.574a.553.553,0,0,1-.134.553c-.837.837-6.624.444-9.547-.268a4.189,4.189,0,0,1-1.005-.377,4.59,4.59,0,0,0-1.9,2.27,3.626,3.626,0,0,0-.193,1.926,3.462,3.462,0,0,1,.461-.243c1.734-.837,3.827-.687,6.407.419,1.675.737,2.512,1.382,2.6,2.043a.93.93,0,0,1-.477.837c-1.273.837-5.753.72-8.082-.519a3.275,3.275,0,0,1-1.29-1.248c-1.365,1.248-2.512,3.492-3.484,7A.419.419,0,0,1,336.629,236.112Zm4.547-7.814a2.512,2.512,0,0,0,1.022,1.022c1.893,1,5.611,1.239,7,.67.285-.117.327-.209.327-.209s-.042-.469-2.094-1.348c-2.345-1-4.187-1.147-5.72-.435a4.635,4.635,0,0,0-.544.3Zm2.789-5.5.218.059a27.569,27.569,0,0,0,8.316.62,18.928,18.928,0,0,0-3.048-.837,9.5,9.5,0,0,0-5.485.159Zm1.055-4.707a5.326,5.326,0,0,0,1.206.268c4.187.494,7.855-.092,8.375-.611a6.7,6.7,0,0,0-2.789-.888,9.438,9.438,0,0,0-6.792,1.231Z" transform="translate(-54.643 -34.105)" fill="#263238"/>
    <path id="Path_49714" data-name="Path 49714" d="M197.42,343c.553-.176.368-.712-.251-.712H185.829c-21.59-2.286-36.673.779-27.168,1.5s-.67.569-7.613,3.2,51.63,3.291,56.948,0C212.888,343.955,189.766,345.446,197.42,343Z" transform="translate(-24.457 -55.496)" fill="#263238"/>
    <path id="Path_49715" data-name="Path 49715" d="M283.53,328.091l-98.654-3.275-4.1-95.656,116.5,2.6Z" transform="translate(-29.382 -37.245)" fill="#ff7800"/>
    <path id="Path_49716" data-name="Path 49716" d="M220.834,326.292a.419.419,0,0,1-.419-.385l-7.906-96.075a.42.42,0,1,1,.837-.067l7.948,96.075a.419.419,0,0,1-.385.452Z" transform="translate(-34.538 -37.28)" fill="#263238"/>
    <path id="Path_49717" data-name="Path 49717" d="M303.47,328.6l26.514-4.045,8.35-88.94-21.113-3.341Z" transform="translate(-49.322 -37.75)" fill="#ff7800"/>
    <path id="Path_49718" data-name="Path 49718" d="M303.61,328.6l26.514-4.045,8.35-88.94-21.113-3.341Z" transform="translate(-49.345 -37.75)" opacity="0.2"/>
    <path id="Path_49719" data-name="Path 49719" d="M193.827,308.252,191.4,251.421a10.276,10.276,0,0,1,10.494-10.711l73.748,1.675a10.276,10.276,0,0,1,9.941,11.725l-8.174,57.275A10.276,10.276,0,0,1,266.9,320.2l-63.137-2.094A10.276,10.276,0,0,1,193.827,308.252Z" transform="translate(-31.106 -39.121)" fill="#263238"/>
    <path id="Path_49720" data-name="Path 49720" d="M271.006,292.639a1.1,1.1,0,0,1-.837-.36L263,284.432l-7.738,7.068a1.1,1.1,0,0,1-1.549-.067l-7.169-7.847-7.738,7.068a1.1,1.1,0,0,1-1.549-.067l-7.169-7.847-7.738,7.068a1.1,1.1,0,0,1-1.549-.067l-7.169-7.847-7.738,7.068a1.1,1.1,0,1,1-1.482-1.625l8.551-7.814a1.1,1.1,0,0,1,1.549.067l7.169,7.847,7.738-7.068a1.1,1.1,0,0,1,1.549.067l7.169,7.847,7.738-7.068a1.1,1.1,0,0,1,1.549.067l7.169,7.847,7.738-7.068a1.1,1.1,0,0,1,1.549.067l7.964,8.634a1.1,1.1,0,0,1-.837,1.842Z" transform="translate(-33.164 -45.383)" fill="#fff"/>
    <path id="Path_49721" data-name="Path 49721" d="M123.826,344.269l-5.243-2.5-4.673-22.754,2.538-2.789Z" transform="translate(-18.513 -51.396)" fill="#4e22d0"/>
    <path id="Path_49722" data-name="Path 49722" d="M124.318,344.269l6.959-4.062-5.963-18.743-8.375-5.234Z" transform="translate(-19.006 -51.396)" fill="#407bff"/>
    <path id="Path_49723" data-name="Path 49723" d="M124.318,344.269l6.959-4.062-5.963-18.743-8.375-5.234Z" transform="translate(-19.006 -51.396)" opacity="0.2"/>
    <path id="Path_49724" data-name="Path 49724" d="M261.047,350.419h-.578a4.189,4.189,0,0,1,.226-8.375c6.449.209,20.1-3.752,27.9-11.323a4.187,4.187,0,0,1,1.675-1c13.224-3.97,18.14,4.045,18.349,4.388l-7.211,4.263a1.066,1.066,0,0,0,.1.151c-.084-.109-1.951-2.512-7.914-1.038C283.843,346.416,268.819,350.419,261.047,350.419Z" transform="translate(-41.671 -53.409)" fill="#263238"/>
    <path id="Path_49725" data-name="Path 49725" d="M258.2,355.657l-15.25-.963-1.2-28.114,20.493.762Z" transform="translate(-39.291 -53.078)" fill="#4e22d0"/>
    <path id="Path_49726" data-name="Path 49726" d="M261.39,355.8l3.568-3.551,2.211-17.528-1.734-7.236Z" transform="translate(-42.483 -53.226)" fill="#407bff"/>
    <path id="Path_49727" data-name="Path 49727" d="M261.39,355.8l3.568-3.551,2.211-17.528-1.734-7.236Z" transform="translate(-42.483 -53.226)" opacity="0.2"/>
    <path id="Path_49728" data-name="Path 49728" d="M360.884,333.978a2.512,2.512,0,0,1-1.516-.511c-8.7-6.616-20.476-18.366-24.99-29.7a2.512,2.512,0,0,1-.142-.511c-2.2-13.09-4.3-40.651-4.4-41.815a2.519,2.519,0,0,1,5.025-.377c0,.285,2.144,28.114,4.3,41.095,4.506,11.021,16.749,22.335,23.265,27.31a2.512,2.512,0,0,1-1.524,4.514Z" transform="translate(-53.606 -42.052)" fill="#263238"/>
    <path id="Path_49729" data-name="Path 49729" d="M379.309,348.71c-1.943,0-4.145-.879-6.541-2.613a2.513,2.513,0,1,1,2.948-4.07c2.077,1.5,3.207,1.675,3.6,1.675a2.512,2.512,0,1,1,0,5.025Z" transform="translate(-60.416 -55.511)" fill="#263238"/>
    <path id="Path_49730" data-name="Path 49730" d="M373.777,345.687c2.688-7.99,13.709-6.407,17.5-5.226a40.282,40.282,0,0,1,9.271,4.02c2.052,1.34,2.085,3.593-.653,4.874-3.35,1.583-11.859.176-11.859.176,4.388,1.918,0,5.025-7.713,1.976C377.831,350.528,372.831,348.61,373.777,345.687Z" transform="translate(-60.73 -55.176)" fill="#4e22d0"/>
    <path id="Path_49731" data-name="Path 49731" d="M338.863,263.456c-1,6.784-6.616,11.792-11.189,11.113s-4.757-6.7-3.76-13.517,2.806-11.725,7.378-11.055S339.86,256.69,338.863,263.456Z" transform="translate(-52.565 -40.621)" fill="#263238"/>
    <circle id="Ellipse_1416" data-name="Ellipse 1416" cx="0.687" cy="0.687" r="0.687" transform="translate(175.082 194.378)" fill="#263238"/>
    <circle id="Ellipse_1417" data-name="Ellipse 1417" cx="0.687" cy="0.687" r="0.687" transform="translate(181.372 199.327)" fill="#263238"/>
    <circle id="Ellipse_1418" data-name="Ellipse 1418" cx="0.687" cy="0.687" r="0.687" transform="translate(182.142 280.478)" fill="#263238"/>
    <circle id="Ellipse_1419" data-name="Ellipse 1419" cx="0.687" cy="0.687" r="0.687" transform="translate(188.431 285.419)" fill="#263238"/>
    <path id="Path_49732" data-name="Path 49732" d="M81.3,349.677a8.082,8.082,0,0,1-6.139-3.308.419.419,0,1,1,.687-.477c1.566,2.253,5.025,3.459,6.541,2.747a1.181,1.181,0,0,0,.394-.285,5.083,5.083,0,0,1-2.956-3.752c-.193-1.064-.343-2.512.536-2.7,1.2-.268,2.772,2.638,3.35,4.841a3,3,0,0,1,.109,1.122,3.744,3.744,0,0,0,1.5.117,1.616,1.616,0,0,0,1.147-.628,4.891,4.891,0,0,1-1.926-3.509c-.327-2.286-.084-2.688.176-2.881a.561.561,0,0,1,.578-.067c.9.385,1.985,3.626,2.186,5.469a2.6,2.6,0,0,1,0,.578,3.208,3.208,0,0,0,1.131.218,3.652,3.652,0,0,0,2.018-.528,2.863,2.863,0,0,1-.335-.251,4.085,4.085,0,0,1-1.072-3.626c.117-1.315.41-2.027.938-2.253a.955.955,0,0,1,1.013.2,5.787,5.787,0,0,1,1.424,4.665,2.454,2.454,0,0,1-.419.963,15.272,15.272,0,0,0,5.561-.628.431.431,0,1,1,.2.837c-2.27.561-4.715,1.013-6.44.519a4.757,4.757,0,0,1-2.931.971,4.069,4.069,0,0,1-1.373-.26,2.362,2.362,0,0,1-1.775,1.064,4.53,4.53,0,0,1-1.876-.159,1.909,1.909,0,0,1-.837.745A3.434,3.434,0,0,1,81.3,349.677Zm-.72-6.934a3.71,3.71,0,0,0,.067,1.675,4.254,4.254,0,0,0,2.378,3.107,2.554,2.554,0,0,0-.1-.595C82.273,344.569,81.017,342.919,80.581,342.743Zm4.665-.729a11.616,11.616,0,0,0,.151,1.725,4.313,4.313,0,0,0,1.273,2.7A13.224,13.224,0,0,0,85.246,342.015Zm5.268-.729h0s-.318.159-.435,1.558a3.289,3.289,0,0,0,.779,2.914,2.15,2.15,0,0,0,.5.318,1.792,1.792,0,0,0,.452-.837,5.243,5.243,0,0,0-1-3.71C90.648,341.319,90.539,341.286,90.514,341.286Z" transform="translate(-12.202 -55.331)" fill="#263238"/>
    <path id="Path_49733" data-name="Path 49733" d="M228.4,357.494l2.27-3.936-2.27-3.928H225.97l1.373,3.928-1.373,3.936Z" transform="translate(-36.726 -56.824)" fill="#263238"/>
    <path id="Path_49734" data-name="Path 49734" d="M225.212,355.836a2.052,2.052,0,1,1,0-4.1l-3.861-.77-1.022,3.115,1.725,2.63Z" transform="translate(-35.81 -57.042)" fill="#263238"/>
    <path id="Path_49735" data-name="Path 49735" d="M225.237,349.63H220.69l-2.27,3.936,2.27,3.936h4.547l2.27-3.936Zm-2.27,5.988a2.052,2.052,0,1,1,2.043-2.052,2.052,2.052,0,0,1-2.043,2.052Z" transform="translate(-35.499 -56.824)" fill="#4e22d0"/>
    <path id="Path_49736" data-name="Path 49736" d="M417.563,348.176l-1.683-2.923,1.683-2.923h1.8l-1.013,2.923,1.013,2.923Z" transform="translate(-67.592 -55.638)" fill="#4e22d0"/>
    <path id="Path_49737" data-name="Path 49737" d="M419.9,346.94a1.524,1.524,0,1,0,0-3.04l2.864-.569.762,2.311-1.281,1.951Z" transform="translate(-68.245 -55.8)" fill="#4e22d0"/>
    <path id="Path_49738" data-name="Path 49738" d="M419.285,342.33h3.35l1.675,2.923-1.675,2.923h-3.35l-1.675-2.923Zm1.675,4.447a1.526,1.526,0,1,1,.008,0Z" transform="translate(-67.873 -55.638)" fill="#263238"/>
    <path id="Path_49739" data-name="Path 49739" d="M342.6,353.254h3.785a1.8,1.8,0,0,0,1.792-1.792h0a1.8,1.8,0,0,0-1.792-1.792H342.6a1.8,1.8,0,0,0-1.792,1.792h0a1.8,1.8,0,0,0,1.792,1.792Z" transform="translate(-55.391 -56.831)" fill="#263238"/>
    <ellipse id="Ellipse_1420" data-name="Ellipse 1420" cx="3.97" cy="3.727" rx="3.97" ry="3.727" transform="translate(279.464 296.609) rotate(-64.76)" fill="#4e22d0"/>
    <rect id="Rectangle_17629" data-name="Rectangle 17629" width="1.147" height="8.458" transform="translate(283.228 298.703) rotate(-154.76)" fill="#263238"/>
  </g>
</svg>
