<svg xmlns="http://www.w3.org/2000/svg" xmlns:xlink="http://www.w3.org/1999/xlink" version="1.1" id="Layer_1" x="0px" y="0px" style="enable-background:new 0 0 1125 2436;" xml:space="preserve" viewBox="153.4 593.5 802.45 940.57">
<style type="text/css">
	.st0{opacity:0.76;fill:url(#SVGID_1_);}
	.st1{fill:#261C6A;}
	.st2{fill:#EAEAEA;}
	.st3{fill:#ED771B;}
	.st4{fill:none;stroke:#ED771B;stroke-width:3;stroke-miterlimit:10;}
	.st5{fill:none;stroke:#261C6A;stroke-width:3;stroke-miterlimit:10;}
	.st6{fill:#ECECEC;}
	.st7{fill:#DCDCDC;}
	.st8{fill:#FFFFFF;}
	.st9{fill:#C8C8C8;}
	.st10{fill:#1A2E35;}
	.st11{fill:#FF9581;}
	.st12{fill:#A8A8A8;}
	.st13{fill:#2B454E;}
	.st14{fill:none;stroke:#FFA89E;stroke-width:0;stroke-linecap:round;stroke-linejoin:round;}
	.st15{fill:#FF99BC;}
	.st16{fill:#FFC800;}
	.st17{fill:#D6681E;}
	.st18{fill:none;stroke:#1A2E35;stroke-miterlimit:10;}
	.st19{fill:none;stroke:#1A2E35;stroke-miterlimit:10;stroke-dasharray:3.9947,3.9947;}
	.st20{fill:#375A64;}
</style>
<g>
	<polygon class="st6" points="928.33,1139.17 915.99,1198.89 908.06,1191.15 894.55,1200.78 884.23,1187.97 861.08,1204.8    841.31,1171.72 819.24,1184.64 810.49,1172.57 782.47,1188.36 774.04,1170.31 793.68,1075.2 898.97,1096.93  "/>
	<polygon class="st7" points="898.97,1096.94 928.33,1139.16 891.81,1131.62  "/>
	<polygon class="st6" points="913.37,1210.83 895.28,1298.45 753.47,1269.18 771.42,1182.25 779.85,1200.3 807.87,1184.51    816.62,1196.58 838.68,1183.65 858.46,1216.74 881.61,1199.91 891.93,1212.72 905.44,1203.09  "/>
</g>
<g>
	<polygon class="st6" points="710.39,1200.56 565.86,1209.5 554.38,1023.97 661.69,1017.33 701.1,1050.38  "/>
	<polygon class="st7" points="661.69,1017.33 701.1,1050.38 663.88,1052.69  "/>
	<g>
		<path class="st7" d="M621.63,1142.16l-0.56-4.18c-1.46-8.67,0.92-18.37,8.45-28.52c6.79-8.97,10.48-15.5,10.08-22.78    c-0.46-8.24-5.94-13.45-16.13-13.04c-5.82,0.33-12.17,2.63-16.04,5.93l-4.45-9.97c5.12-4.18,14.19-7.28,22.75-7.76    c18.59-1.04,27.64,9.96,28.32,22.25c0.62,10.99-5.08,19.26-12.33,28.9c-6.64,8.8-8.83,16.06-7.88,24.28l0.4,4.19L621.63,1142.16z     M619.34,1164.99c-0.33-5.98,3.47-10.41,9.13-10.73c5.66-0.32,9.77,3.67,10.11,9.65c0.32,5.66-3.16,10.23-9.14,10.56    C623.78,1174.79,619.66,1170.65,619.34,1164.99z"/>
	</g>
</g>
<g>
	<path class="st6" d="M260.19,1110.61l-14.54-6.6l-2.02,4.45c-0.59,1.31-1.88,2.15-3.31,2.21c-0.79,0.04-1.59,0.11-2.38,0.23   c-1.42,0.22-2.84-0.35-3.67-1.52l-2.85-3.97l-12.99,9.3l2.85,3.97c0.84,1.17,0.92,2.69,0.26,3.97c-0.37,0.71-0.7,1.44-0.99,2.18   c-0.52,1.34-1.73,2.29-3.16,2.43l-4.87,0.48l1.57,15.89l4.88-0.49c1.43-0.14,2.79,0.57,3.56,1.78c0.21,0.33,0.43,0.65,0.66,0.97   c0.23,0.32,0.47,0.63,0.71,0.94c0.89,1.12,1.13,2.62,0.54,3.93l-2.03,4.49l14.54,6.6l2.03-4.46c0.59-1.31,1.88-2.14,3.32-2.21   c0.79-0.03,1.58-0.11,2.37-0.23c1.42-0.21,2.83,0.36,3.67,1.52l2.85,3.97l12.99-9.3l-2.85-3.98c-0.83-1.16-0.92-2.69-0.26-3.96   c0.37-0.71,0.69-1.43,0.98-2.17c0.52-1.34,1.72-2.29,3.16-2.43l4.88-0.48l-1.57-15.89l-4.88,0.48c-1.43,0.14-2.78-0.57-3.55-1.78   c-0.21-0.33-0.43-0.66-0.67-0.98c-0.23-0.32-0.47-0.63-0.71-0.94c-0.9-1.13-1.14-2.64-0.54-3.95L260.19,1110.61z M251.94,1125.31   c4.21,5.87,2.86,14.04-3.01,18.24c-5.87,4.21-14.05,2.87-18.25-3.01c-4.21-5.87-2.86-14.05,3.02-18.26   C239.56,1118.08,247.73,1119.44,251.94,1125.31z"/>
	<path class="st6" d="M917.29,1321.44l-9.69,5.59l1.71,2.97c0.5,0.87,0.46,1.94-0.09,2.79c-0.3,0.47-0.58,0.95-0.84,1.45   c-0.46,0.9-1.36,1.47-2.36,1.47h-3.42v11.19h3.42c1,0,1.91,0.58,2.36,1.47c0.25,0.5,0.53,0.98,0.84,1.45   c0.55,0.84,0.6,1.92,0.09,2.79l-1.71,2.97l9.69,5.59l1.71-2.98c0.5-0.87,1.46-1.35,2.47-1.3c0.27,0.01,0.55,0.02,0.82,0.02   c0.28,0,0.55-0.01,0.82-0.02c1-0.05,1.96,0.43,2.46,1.29l1.73,2.99l9.69-5.59l-1.71-2.97c-0.5-0.87-0.45-1.95,0.1-2.79   c0.3-0.46,0.58-0.95,0.84-1.44c0.46-0.89,1.36-1.47,2.36-1.47H942v-11.19h-3.43c-1,0-1.91-0.57-2.36-1.47   c-0.25-0.5-0.53-0.98-0.84-1.44c-0.55-0.84-0.6-1.92-0.1-2.79l1.71-2.97l-9.69-5.59l-1.72,2.97c-0.5,0.87-1.46,1.35-2.46,1.3   c-0.27-0.01-0.55-0.02-0.83-0.02c-0.28,0-0.55,0.01-0.82,0.02c-1.01,0.05-1.97-0.43-2.47-1.3L917.29,1321.44z M922.3,1332.13   c5.06,0,9.16,4.1,9.16,9.16c0,5.06-4.1,9.17-9.16,9.17s-9.17-4.11-9.17-9.17C913.13,1336.23,917.23,1332.13,922.3,1332.13z"/>
	<path class="st6" d="M289.6,1062.99l-8.89,6.8l2.08,2.72c0.61,0.8,0.7,1.87,0.27,2.78c-0.24,0.5-0.46,1.02-0.64,1.54   c-0.34,0.95-1.16,1.63-2.15,1.76l-3.4,0.44l1.44,11.1l3.4-0.44c1-0.13,1.97,0.32,2.53,1.15c0.32,0.46,0.66,0.91,1.02,1.33   c0.65,0.77,0.84,1.82,0.45,2.75l-1.32,3.16l10.33,4.29l1.32-3.18c0.39-0.93,1.27-1.53,2.28-1.61c0.27-0.02,0.55-0.05,0.82-0.09   c0.27-0.04,0.54-0.08,0.81-0.13c0.99-0.18,1.99,0.17,2.6,0.97l2.1,2.74l8.89-6.8l-2.08-2.73c-0.61-0.8-0.7-1.87-0.26-2.78   c0.24-0.5,0.46-1.01,0.64-1.54c0.34-0.95,1.16-1.63,2.15-1.76l3.4-0.44l-1.44-11.1l-3.4,0.44c-1,0.13-1.97-0.32-2.53-1.15   c-0.31-0.46-0.65-0.9-1.01-1.32c-0.66-0.77-0.84-1.82-0.46-2.75l1.32-3.17l-10.33-4.29l-1.32,3.17c-0.39,0.93-1.27,1.53-2.27,1.6   c-0.27,0.02-0.55,0.05-0.83,0.09c-0.27,0.04-0.54,0.08-0.81,0.13c-0.99,0.18-2-0.17-2.62-0.97L289.6,1062.99z M295.94,1072.95   c5.02-0.65,9.61,2.88,10.27,7.9c0.65,5.02-2.88,9.62-7.9,10.27c-5.02,0.65-9.62-2.89-10.28-7.91   C287.38,1078.2,290.92,1073.61,295.94,1072.95z"/>
</g>
<g>
	<g>
		<path class="st6" d="M223.25,1353.74c0.51-12.47,0.3-24.96-0.51-37.42c-1.69-25.68-5.91-51.17-11.72-76.23    c-3.27-14.11-7.29-27.98-11.49-41.83c-0.13-0.42-0.79-0.3-0.68,0.14c12.97,48.84,23.61,99.23,22.88,150    c-0.21,14.21-1.85,28.16-3.2,42.28c-0.04,0.38,0.59,0.53,0.67,0.14C221.88,1378.74,222.75,1366.08,223.25,1353.74z"/>
		<path class="st6" d="M198.85,1198.4c0,0-19.65,49.87-15.25,61.59c4.4,11.72,13.47,14.22,13.47,14.22s-12.02,17.16-3.62,33.26    c8.4,16.1,27.06,15.34,28.3,33.59C221.75,1341.06,222.79,1264.75,198.85,1198.4z"/>
		<path class="st8" d="M219.62,1309.55c0.02-0.08,0.02-0.17-0.02-0.26c-2.76-33.91-8.77-67.71-19.06-100.32    c-0.03-0.1-0.19-0.07-0.16,0.03c3.89,14.59,7.36,29.25,10.32,44c-2.55-2.63-5.89-4.14-9.38-5.23c-0.07-0.02-0.1,0.07-0.04,0.1    c3.63,1.57,7.12,3.39,9.68,6.47c0.57,2.89,1.14,5.78,1.67,8.68c-4.39-4.91-10.48-7.34-16.57-9.66c-0.09-0.03-0.13,0.1-0.05,0.13    c6.35,2.58,12.67,5.91,16.97,11.38c1.5,8.28,2.81,16.58,3.95,24.91c-3.21-3.35-7.17-5.61-11.72-6.71    c-0.14-0.03-0.21,0.17-0.07,0.21c4.67,1.34,8.68,3.96,11.88,7.61c0.02,0.03,0.05,0.04,0.07,0.06c0.39,2.93,0.76,5.86,1.11,8.8    c-2.47-2.11-5.2-3.71-8.21-4.95c-0.08-0.03-0.12,0.09-0.04,0.13c3.06,1.3,5.8,3.18,8.22,5.44c0.03,0.03,0.07,0.03,0.1,0.04    c0.33,2.79,0.65,5.59,0.94,8.39c-4.5-5.43-10.07-9.36-16.66-11.9c-0.13-0.05-0.2,0.15-0.07,0.2c6.41,2.79,12.06,7.2,16.42,12.64    c0.12,0.15,0.28,0.17,0.41,0.13c0.42,4.29,0.8,8.59,1.12,12.9c0,0.06,0.1,0.06,0.1,0    C220.28,1318.36,219.97,1313.96,219.62,1309.55z"/>
		<path class="st8" d="M203.83,1242.82c-3.41-2.34-7.74-3.34-11.8-3.68c-0.1-0.01-0.11,0.14-0.01,0.15    c4.23,0.63,7.78,2.16,11.67,3.81C203.86,1243.17,203.98,1242.92,203.83,1242.82z"/>
		<path class="st8" d="M206.22,1295.62c-2.7-1.62-5.77-2.53-8.86-3.03c-0.11-0.02-0.12,0.15-0.01,0.17    c3.14,0.57,5.91,1.68,8.77,3.07C206.23,1295.89,206.33,1295.69,206.22,1295.62z"/>
	</g>
	<g>
		<path class="st6" d="M274.9,1260.81c-8.19,5.76-16.06,12.4-22.74,19.88c-7.12,7.97-12.32,17.01-15.95,27.05    c-7.43,20.56-11.51,42.83-11.88,64.69c-0.21,12.25,0.88,24.4,3.5,36.38c0.1,0.44,0.75,0.31,0.68-0.13    c-3.2-21.07-3.09-42.56,0.36-63.59c3.38-20.63,8.68-43.07,21.79-59.84c7.14-9.13,16.04-16.31,24.85-23.73    C275.97,1261.12,275.38,1260.47,274.9,1260.81z"/>
		<path class="st6" d="M227.22,1357.57c0,0,6.75-11.36,16.58-21.19c9.83-9.83,18.11-16.81,19.38-23.31    c1.28-6.5-9.85-11.28-9.85-11.28s13.6,2.44,17.32-3.27c3.72-5.71,5.52-38.77,5.52-38.77s-24.74,17.67-36.27,42.43    C228.38,1326.94,227.22,1357.57,227.22,1357.57z"/>
		<path class="st8" d="M267.62,1268.22c-10.41,10.23-20.89,21.12-27.02,34.56c-2.1,4.61-3.89,9.38-5.47,14.25    c0,0.01,0,0.02-0.01,0.02c-0.32,0.98-0.64,1.95-0.93,2.94c-0.03,0.05-0.05,0.1-0.05,0.16c-3.03,10.03-5.17,20.41-7.03,30.54    c-0.01,0.07,0.09,0.1,0.1,0.03c1.07-5.16,2.24-10.37,3.56-15.56c0.05,0,0.1-0.01,0.15-0.03c2.1-0.88,4.22-1.44,6.49-1.65    c0.15-0.01,0.14-0.27-0.01-0.26c-2.19,0.11-4.34,0.49-6.42,1.17c1.2-4.68,2.5-9.35,3.97-13.96c4.78-1.17,9.76-1.8,14.68-1.92    c0.05,0,0.06-0.08,0.01-0.08c-4.95-0.23-9.61,0.2-14.43,1.22c0.25-0.79,0.52-1.58,0.78-2.36c3.23-0.74,6.47-1.35,9.77-1.65    c0.06-0.01,0.05-0.11-0.01-0.11c-3.23,0.09-6.42,0.43-9.56,1.16c1.35-3.98,2.8-7.91,4.42-11.74c1.34-3.16,2.92-6.17,4.67-9.07    c2.65-0.6,5.21-1.17,7.92-1.41c0.08-0.01,0.07-0.13-0.01-0.13c-2.46-0.16-5.03,0.02-7.41,0.73c1.3-2.1,2.67-4.16,4.13-6.16    c0,0,0,0,0,0c5.55-1.23,11.17-2.37,16.85-1.3c0.1,0.02,0.13-0.15,0.04-0.17c-5.4-1.42-10.77-0.6-16.14,0.46    c0.59-0.78,1.19-1.55,1.79-2.32c3.41-1.05,6.79-1.56,10.37-1.63c0.07,0,0.08-0.11,0.01-0.11c-3.26-0.31-6.51,0-9.67,0.86    c4.59-5.7,9.65-11.05,14.66-16.35C268.04,1268.12,267.86,1267.98,267.62,1268.22z"/>
		<path class="st8" d="M267.34,1290.76c-1.63-0.17-3.29-0.36-4.92-0.17c-0.2,0.02-0.18,0.34,0.02,0.35    c1.63,0.05,3.26-0.07,4.89,0.01C267.45,1290.96,267.46,1290.77,267.34,1290.76z"/>
		<path class="st8" d="M249.53,1322.83c-2.6-0.03-5.2,0.67-7.63,1.53c-0.06,0.02-0.03,0.12,0.04,0.11c2.52-0.6,5.07-0.84,7.61-1.26    C249.76,1323.17,249.75,1322.83,249.53,1322.83z"/>
		<path class="st8" d="M244.19,1311.75c-1.06-0.06-2.2,0.13-3.24,0.29c-0.11,0.02-0.1,0.19,0.01,0.19c1.05,0.02,2.21,0.05,3.24-0.15    C244.39,1312.05,244.38,1311.76,244.19,1311.75z"/>
	</g>
	<g>
		<path class="st6" d="M154.68,1295.9c7.96,2.77,15.86,6.33,23,10.83c7.61,4.8,13.9,10.92,19.16,18.2    c10.77,14.92,19.21,32.01,24.57,49.6c3,9.87,4.93,19.95,5.57,30.25c0.02,0.37-0.53,0.43-0.58,0.05    c-2.28-17.79-7.34-35.16-14.99-51.38c-7.5-15.91-16.98-32.85-31.47-43.39c-7.89-5.74-16.75-9.49-25.59-13.47    C153.89,1296.39,154.22,1295.73,154.68,1295.9z"/>
		<path class="st6" d="M215.63,1363.18c0,0-8.09-7.64-18.31-13.32c-10.23-5.68-18.54-9.42-21.08-14.38    c-2.54-4.96,5.36-11.41,5.36-11.41s-10.44,5.12-14.77,1.36c-4.33-3.76-13.43-30.1-13.43-30.1s24.11,8.58,39.16,25.95    C207.62,1338.66,215.63,1363.18,215.63,1363.18z"/>
		<path class="st8" d="M214.38,1357.75c-12.06-22.63-28.15-43.11-50.19-56.62c-0.01-0.01-0.02,0.01-0.01,0.01    c5.8,3.7,11.15,7.96,16.14,12.63c-4.46-0.12-9.01,0.59-12.96,2.74c-0.09,0.05-0.02,0.17,0.07,0.14c4.41-1.49,8.65-2.47,13.34-2.25    c0.06,0,0.11-0.03,0.15-0.06c0.78,0.74,1.55,1.5,2.32,2.26c-2.32,0.1-4.67,0.43-6.93,0.92c-0.06,0.01-0.04,0.11,0.02,0.1    c2.45-0.47,4.83-0.64,7.32-0.6c4.04,4.06,7.8,8.4,11.37,12.91c-1.61-0.23-3.3-0.1-4.84,0.35c-0.11,0.03-0.08,0.2,0.04,0.18    c1.76-0.22,3.43-0.19,5.17-0.07c0.66,0.84,1.33,1.68,1.97,2.53c-4.96-0.3-9.81,0.18-14.63,1.42c-0.07,0.02-0.05,0.13,0.02,0.11    c4.97-0.98,9.98-1.29,15.03-0.98c0.61,0.82,1.2,1.65,1.8,2.48c-2.96-0.09-5.83,0.28-8.71,1c-0.11,0.03-0.08,0.2,0.03,0.17    c2.97-0.68,5.98-0.85,9.02-0.7c2.59,3.57,5.08,7.23,7.47,10.92c-1.26-0.26-2.59-0.12-3.82,0.23c-0.07,0.02-0.05,0.11,0.02,0.1    c1.42-0.17,2.74,0.02,4.14,0.2c2.15,3.34,4.22,6.72,6.21,10.11C214.07,1358.26,214.54,1358.05,214.38,1357.75z"/>
		<path class="st8" d="M195.62,1338.97c-2.36-0.2-4.75,0.17-7,0.86c-0.06,0.02-0.05,0.12,0.02,0.1c2.32-0.43,4.62-0.59,6.97-0.71    C195.76,1339.21,195.79,1338.99,195.62,1338.97z"/>
		<path class="st8" d="M174.59,1311.39c-1.07-0.12-2.18,0.02-3.23,0.19c-0.13,0.02-0.09,0.2,0.04,0.19    c1.06-0.11,2.11-0.07,3.17-0.11C174.74,1311.66,174.77,1311.41,174.59,1311.39z"/>
	</g>
	<g>
		<g>
			<polygon class="st7" points="246.73,1438.02 192.31,1438.02 200.07,1381.18 202.05,1366.61 236.99,1366.61 238.97,1381.18    "/>
			<polygon class="st9" points="238.97,1381.18 200.07,1381.18 202.05,1366.61 236.99,1366.61    "/>
		</g>
		<rect x="197.06" y="1361.55" class="st7" width="44.93" height="12.34"/>
	</g>
</g>
<g>
	<path class="st10" d="M157.71,1438.02c251.02-0.61,532.6-0.62,783.61,0C690.31,1438.64,408.73,1438.63,157.71,1438.02   L157.71,1438.02z"/>
</g>
<g>
	<ellipse class="st6" cx="552.1" cy="1493.58" rx="369.52" ry="40.49"/>
</g>
<g>
	<g>
		<g>
			<g>
				<path class="st11" d="M466.08,1486.87c-3,1.02-89.11,1.32-92.4-0.74c-1.25-0.78-2.03-13.31-2.53-28.49      c-0.11-3.28-0.2-6.66-0.28-10.1l-6.98-45.92l57.56-0.37l5.43,45.93l-0.22,10.1c0,0,33.02,14.63,36.38,17.28      C466.39,1477.21,469.08,1485.85,466.08,1486.87z"/>
				<path class="st8" d="M466.08,1486.87c-3,1.02-89.11,1.32-92.4-0.74c-1.52-0.95-2.35-19.26-2.81-38.59l56.01-0.36l-0.22,10.1      c0,0,33.02,14.63,36.38,17.28C466.39,1477.21,469.08,1485.85,466.08,1486.87z"/>
				<g>
					<path class="st12" d="M466.08,1486.87c-3,1.02-89.11,1.32-92.4-0.74c-1.25-0.78-2.03-13.31-2.53-28.49l55.51-0.36       c0,0,33.02,14.63,36.38,17.28C466.39,1477.21,469.08,1485.85,466.08,1486.87z"/>
					<g>
						<g>
							<path class="st10" d="M464.83,1483.43c-14.43-0.3-72.68-0.17-86.97,0.63c-0.12,0.01-0.12,0.09,0,0.09         c14.3,0.61,72.55,0,86.97-0.48C465.14,1483.66,465.14,1483.44,464.83,1483.43z"/>
							<path class="st10" d="M457.49,1471.48c-3.42-0.13-6.76,1.51-8.62,3.55c-1.79,1.96-3.31,4.72-3.2,7.72         c0,0.09,0.16,0.09,0.17,0c0.8-5.65,5.92-10.63,11.65-11.09C457.61,1471.65,457.61,1471.49,457.49,1471.48z"/>
							<path class="st10" d="M432.26,1458.7c-5.78-0.06-12.47,2-16.04,6.74c-0.14,0.18,0.12,0.38,0.3,0.29         c5.21-2.71,10.17-4.73,15.85-6.32C432.76,1459.3,432.68,1458.7,432.26,1458.7z"/>
							<path class="st10" d="M436.73,1460.42c-5.78-0.06-12.47,2-16.04,6.74c-0.14,0.18,0.12,0.38,0.3,0.29         c5.21-2.71,10.17-4.73,15.85-6.32C437.23,1461.02,437.14,1460.42,436.73,1460.42z"/>
							<path class="st10" d="M441.19,1462.14c-5.78-0.06-12.47,2-16.04,6.74c-0.14,0.18,0.12,0.38,0.3,0.29         c5.21-2.71,10.17-4.73,15.85-6.32C441.7,1462.74,441.61,1462.15,441.19,1462.14z"/>
							<path class="st10" d="M445.66,1463.87c-5.78-0.06-12.47,2-16.04,6.74c-0.14,0.18,0.12,0.38,0.3,0.29         c5.21-2.71,10.17-4.73,15.85-6.32C446.16,1464.46,446.07,1463.87,445.66,1463.87z"/>
							<path class="st10" d="M381.49,1470.34c-6.48,0.04-6.43,10.11,0.06,10.07C388.03,1480.37,387.98,1470.3,381.49,1470.34z"/>
						</g>
						<path class="st10" d="M438.45,1443.26c-2.93-2.41-6.61-0.03-8.4,2.49c-2.91,4.09-4.89,9.81-5.2,14.79        c-0.01,0.12,0.09,0.17,0.18,0.16c0.12,0.41,0.62,0.76,1.04,0.46c4.1-2.86,8.84-5.41,11.95-9.44        C439.83,1449.37,441.22,1445.54,438.45,1443.26z M431.41,1455.56c-1.98,1.46-4.03,2.8-5.96,4.33        c1.02-2.88,1.91-5.79,3.23-8.57c0.63-1.33,1.29-2.67,2.1-3.9c1.25-1.91,6.9-6.76,7.5-0.48        C438.6,1450.41,433.77,1453.83,431.41,1455.56z"/>
						<path class="st10" d="M410.51,1462.74c5.03,0.75,10.22-0.7,15.16-1.48c0.51-0.08,0.63-0.67,0.43-1.05        c0.07-0.06,0.11-0.16,0.02-0.24c-3.67-3.38-9.07-6.12-14-7.06c-3.04-0.57-7.34,0.26-7.78,4.03        C403.91,1460.5,407.57,1462.29,410.51,1462.74z M407.01,1459.46c-3.93-4.94,3.51-5.37,5.74-4.85        c1.43,0.33,2.85,0.84,4.22,1.36c2.87,1.09,5.53,2.57,8.27,3.94c-2.45,0.24-4.86,0.68-7.3,1.01        C415.02,1461.3,409.17,1462.18,407.01,1459.46z"/>
					</g>
				</g>
			</g>
			<g>
				<path class="st13" d="M279.31,1189.33c0,0,66.84,113.71,68.63,121.7c2.75,12.27,17.33,133.42,17.33,133.42l69.55-1.25      c0,0-11.99-106.82-23.34-142.01c-8.18-25.35-67.17-109.42-67.17-109.42L279.31,1189.33z"/>
				<g>
					<path class="st10" d="M428.5,1432.54c-9.99-0.07-45.38-0.47-58.68,0.77c-0.1,0.01-0.1,0.18,0,0.19       c4.58,0.66,48.7-0.37,58.68-0.69C428.69,1432.81,428.68,1432.54,428.5,1432.54z"/>
					<path class="st10" d="M290.72,1199.77c4.38,6.87,9,13.6,13.48,20.41c4.48,6.81,8.95,13.64,13.35,20.5       c8.81,13.71,17.38,27.57,25.8,41.51c3.95,6.54,7.71,13.14,10.42,20.27c2.69,7.07,4.51,14.42,5.87,21.83       c1.36,7.46,2.26,15,3.11,22.54c0.9,8.02,1.79,16.05,2.69,24.07c1.83,16.42,3.67,32.83,5.5,49.25c0.22,2.01,0.44,4.03,0.65,6.04       c0.03,0.29-0.5,0.35-0.54,0.06c-2.05-16.31-3.75-32.67-5.61-49.01c-0.93-8.13-1.85-16.26-2.78-24.39       c-0.86-7.56-1.68-15.13-2.85-22.65c-1.15-7.39-2.65-14.75-4.9-21.9c-2.35-7.47-5.68-14.49-9.62-21.28       c-8.06-13.9-16.59-27.56-25.12-41.19c-8.61-13.75-17.28-27.45-26.28-40.96c-1.11-1.67-2.23-3.33-3.38-4.97       C290.41,1199.76,290.63,1199.64,290.72,1199.77z"/>
				</g>
			</g>
		</g>
		<g>
			<g>
				<path class="st11" d="M301.22,1493.58c-3.17-0.19-85.05-33.37-87.33-36.51c-0.08-0.11-0.12-0.31-0.13-0.61      c0.02-2.82,5.69-12.67,10.42-25.6c0.3-0.83,2.41-4.66,5.34-9.84c8.06-14.21,22.33-38.56,22.33-38.56l53.52,21.26l-25.62,38.35      l-3.99,9.28c0,0,25.12,25.96,27.24,29.67C305.12,1484.73,304.38,1493.76,301.22,1493.58z"/>
				<path class="st8" d="M301.22,1493.58c-3.17-0.19-85.05-33.37-87.33-36.51c-0.08-0.11-0.12-0.31-0.13-0.61      c0.02-2.82,5.69-12.67,10.42-25.6c0.3-0.83,2.41-4.66,5.34-9.84l50.23,21.05l-3.99,9.28c0,0,25.12,25.96,27.24,29.67      C305.12,1484.73,304.38,1493.76,301.22,1493.58z"/>
				<g>
					<path class="st12" d="M301.21,1493.57c-3.17-0.18-85.05-33.36-87.32-36.51c-0.87-1.19,2.79-12.37,10.29-26.2l51.59,20.49       c0,0,25.12,25.95,27.24,29.67C305.13,1484.74,304.38,1493.76,301.21,1493.57z"/>
					<g>
						<g>
							<path class="st10" d="M301.35,1489.91c-13.27-5.7-67.31-27.42-80.86-32.04c-0.11-0.04-0.14,0.04-0.03,0.08         c13.03,5.93,67.25,27.22,80.8,32.18C301.55,1490.24,301.63,1490.03,301.35,1489.91z"/>
							<path class="st10" d="M299.03,1476.09c-3.13-1.4-6.84-1.14-9.33,0.06c-2.39,1.15-4.84,3.14-5.86,5.95         c-0.03,0.08,0.12,0.14,0.16,0.06c2.87-4.94,9.48-7.63,14.96-5.91C299.07,1476.29,299.13,1476.14,299.03,1476.09z"/>
							<path class="st10" d="M280.43,1454.77c-5.33-2.22-12.31-2.82-17.4,0.23c-0.2,0.12-0.03,0.4,0.17,0.38         c5.85-0.56,11.2-0.57,17.06,0.09C280.68,1455.51,280.82,1454.93,280.43,1454.77z"/>
							<path class="st10" d="M283.93,1458.04c-5.33-2.22-12.31-2.82-17.4,0.23c-0.2,0.12-0.03,0.4,0.17,0.38         c5.85-0.56,11.2-0.57,17.06,0.09C284.17,1458.79,284.31,1458.2,283.93,1458.04z"/>
							<path class="st10" d="M287.42,1461.31c-5.33-2.22-12.31-2.82-17.4,0.23c-0.2,0.12-0.03,0.4,0.17,0.38         c5.85-0.56,11.2-0.57,17.06,0.09C287.66,1462.06,287.8,1461.47,287.42,1461.31z"/>
							<path class="st10" d="M290.91,1464.59c-5.33-2.22-12.31-2.82-17.4,0.23c-0.2,0.12-0.03,0.4,0.17,0.38         c5.85-0.56,11.2-0.57,17.06,0.09C291.16,1465.33,291.3,1464.75,290.91,1464.59z"/>
							<path class="st10" d="M229,1446.51c-6.02-2.39-9.75,6.96-3.72,9.36C231.3,1458.27,235.03,1448.91,229,1446.51z"/>
						</g>
						<path class="st10" d="M291.96,1442.78c-1.81-3.34-6.11-2.51-8.72-0.84c-4.23,2.7-8.22,7.26-10.37,11.76        c-0.05,0.11,0.02,0.19,0.11,0.22c-0.04,0.43,0.29,0.93,0.79,0.82c4.88-1.11,10.23-1.7,14.62-4.27        C290.95,1448.97,293.68,1445.94,291.96,1442.78z M280.82,1451.54c-2.38,0.6-4.78,1.09-7.15,1.78        c2.03-2.29,3.95-4.65,6.21-6.74c1.08-0.99,2.2-1.99,3.41-2.83c1.87-1.3,8.93-3.68,7.13,2.37        C289.42,1449.46,283.66,1450.82,280.82,1451.54z"/>
						<path class="st10" d="M258.75,1450.35c4.38,2.59,9.73,3.19,14.6,4.31c0.51,0.12,0.83-0.39,0.79-0.82        c0.09-0.03,0.16-0.11,0.11-0.22c-2.14-4.51-6.11-9.08-10.33-11.79c-2.61-1.67-6.9-2.52-8.73,0.82        C253.48,1445.8,256.19,1448.84,258.75,1450.35z M256.74,1446c-1.79-6.05,5.27-3.66,7.14-2.35c1.2,0.84,2.32,1.85,3.4,2.84        c2.25,2.09,4.16,4.46,6.19,6.75c-2.36-0.7-4.76-1.19-7.14-1.8C263.48,1450.72,257.72,1449.34,256.74,1446z"/>
					</g>
				</g>
			</g>
			<g>
				<path class="st13" d="M283.89,1439.92l-59.9-24.19c0,0,74.27-109.21,74.82-117.34c0.49-7.2-32.14-69.86-33.42-88.12      c-1.39-19.71,8.1-34.96,18.53-44.42l61.8,26.27c0,0-6.52,10.43-16.8,16.24c0,0,31.69,72.43,29.89,94.69      C357,1325.45,283.89,1439.92,283.89,1439.92z"/>
				<g>
					<path class="st10" d="M286.55,1428.53c-8.66-3.72-6.12-2.78-14.83-6.41c-4.26-1.78-32.26-13.42-36.52-14.37       c-0.09-0.02-0.15,0.13-0.07,0.18c3.73,2.28,31.93,13.43,36.22,15.12c8.77,3.46,6.29,2.37,15.1,5.73       C286.61,1428.85,286.71,1428.6,286.55,1428.53z"/>
					<g>
						<path class="st10" d="M339.09,1207.04c-6.44,1.38-12.75,3.66-18.82,6.1c-0.24,0.1-0.13,0.45,0.13,0.38        c6.32-1.84,12.74-3.57,18.94-5.75C339.83,1207.6,339.59,1206.93,339.09,1207.04z"/>
						<path class="st10" d="M331.76,1204.5c-0.61,1.06-1.13,2.18-1.59,3.31c-0.36,0.88-0.82,1.82-0.81,2.78        c0,0.19,0.25,0.23,0.37,0.12c0.72-0.71,1.1-1.74,1.55-2.62c0.53-1.02,1.08-2.03,1.57-3.06        C333.18,1204.33,332.14,1203.84,331.76,1204.5z"/>
						<path class="st10" d="M332.51,1198.69c0.38-0.95,0.76-1.9,1.16-2.84c0.41-0.97,0.89-1.94,1.23-2.94        c0.05-0.16,0.3-0.05,0.24,0.11c-0.38,0.95-0.62,1.97-0.93,2.95c-0.3,0.98-0.62,1.96-0.95,2.94c-0.61,1.82-1.35,3.62-2.13,5.38        c1.01-0.01,2.05-0.06,2.97-0.52c1-0.5,1.6-1.56,2.09-2.51c0.54-1.06,1.05-2.15,1.61-3.21c0.62-1.17,1.31-2.32,1.71-3.59        c0.05-0.16,0.3-0.05,0.24,0.11c-0.93,2.61-1.85,5.22-3.29,7.62c-0.57,0.94-1.03,1.93-2.08,2.3c-1.13,0.4-2.36,0.32-3.53,0.24        c-0.14,0.04-0.33-0.05-0.28-0.23C331.14,1202.54,331.76,1200.57,332.51,1198.69z"/>
					</g>
					<path class="st10" d="M329.88,1210.72c2.2,4.66,4.13,9.29,6.18,13.93c2.01,4.53,3.88,9.12,5.71,13.73       c3.69,9.31,6.99,18.8,9.88,28.38c1.43,4.74,2.75,9.52,3.95,14.33c1.2,4.82,2.36,9.7,2.86,14.65c0.5,4.97,0.14,9.88-1.24,14.69       c-1.4,4.87-3.26,9.13-5.45,13.69c-1.34,2.79-1.81,2.41-1.15,1c1.84-3.99,6.67-16.09,6.32-26.26       c-0.17-4.91-1.18-9.74-2.28-14.51c-1.13-4.87-2.41-9.7-3.8-14.5c-2.75-9.46-6.01-18.72-9.36-27.98       c-1.88-5.18-3.9-10.32-5.8-15.49c-1.92-5.21-3.9-9.9-6.03-15.59C329.6,1210.67,329.81,1210.58,329.88,1210.72z"/>
					<path class="st10" d="M284.4,1195.34c1.07-0.4,2.56,0.26,3.66,0.44c1.4,0.24,2.82,0.38,4.24,0.43c1.4,0.05,2.82-0.01,4.21-0.14       c1.4-0.14,2.82-0.31,4.03-1.07c2.04-1.28,3.76-3.52,5.14-5.46c1.52-2.13,3.1-4.57,4.01-7.04c0.06-0.15,0.27-0.05,0.23,0.1       c-0.45,1.44-0.79,2.88-1.36,4.29c-0.54,1.32-1.24,2.58-1.98,3.8c-1.38,2.27-2.97,4.7-5.34,6.05c-2.49,1.42-5.69,1.33-8.46,1.17       c-1.6-0.09-3.2-0.3-4.77-0.64c-1.13-0.24-3.04-0.42-3.77-1.42C284.12,1195.69,284.19,1195.42,284.4,1195.34z"/>
					<path class="st10" d="M241.09,1404.32c9.85-14.9,19.51-29.92,29-45.06c9.51-15.17,18.85-30.45,28.06-45.81       c2.2-3.67,4.75-7.34,6.17-11.41c1.54-4.42,0.67-8.71-0.73-13.04c-2.56-7.94-5.75-15.66-9.2-23.25       c-3.45-7.61-7.17-15.1-10.83-22.62c-3.63-7.45-7.49-14.93-10.24-22.77c-2.63-7.48-3.63-15.24-1.61-23.01       c2-7.7,6.33-14.62,10.86-21.07c1.19-1.7,2.41-3.39,3.61-5.09c0.09-0.13,0.29,0.03,0.19,0.16c-4.98,6.73-9.85,13.85-12.77,21.75       c-1.44,3.9-2.38,8.01-2.47,12.18c-0.09,4.23,0.7,8.43,1.95,12.46c2.42,7.83,6.25,15.25,9.81,22.61       c3.64,7.53,7.39,15,10.9,22.59c3.54,7.63,6.84,15.38,9.56,23.35c1.21,3.55,2.56,7.26,2.48,11.06       c-0.09,4.16-2.07,7.91-4.13,11.42c-8.96,15.28-18.26,30.37-27.67,45.37c-9.45,15.06-19.09,30-28.88,44.84       c-1.23,1.87-2.47,3.74-3.71,5.61C241.27,1404.82,240.93,1404.55,241.09,1404.32z"/>
				</g>
			</g>
		</g>
	</g>
	<g>
		<g>
			<path class="st11" d="M349.15,1122.66c5.58,12.24,33.75,29.12,46.95,30.93c9.49,1.3,38.32,1.75,48.21,0.24     c11.58-1.77,2.73-33.03-4.11-32.23c-18.81,2.2-34.79,4.65-39.81,4.65c-6.13,0-39.32-10.65-43.32-12.15     C347.28,1110.44,345.98,1115.72,349.15,1122.66z"/>
			<g>
				<g>
					<g>
						<path class="st3" d="M349.32,1125.91c7.06,10.45,30.54,27.53,30.54,27.53l3.26-7.22l10.78-23.86c0,0-21.56-6.8-35.75-9.83        c-1.92-0.41-3.61-0.66-5.08-0.72C344.02,1111.31,343.23,1116.92,349.32,1125.91z"/>
					</g>
				</g>
				<path class="st10" d="M349.32,1125.91c7.06,10.45,30.54,27.53,30.54,27.53l3.26-7.22c-8.75-10.16-22.27-25.56-30.04-34.42      C344.02,1111.31,343.23,1116.92,349.32,1125.91z"/>
				<path class="st10" d="M375.62,1148.61c1.79-4.39,9.76-22.08,11.74-25.79c0.14-0.26,0.33-0.24,0.22,0.05      c-5.05,13.26-9.81,21.59-11.79,25.8C375.75,1148.78,375.58,1148.73,375.62,1148.61z"/>
			</g>
			<g>
				<path class="st11" d="M436.74,1121.95c11.45-1.5,25.61-4.07,37.61,1.02c2.35,1,3.21,2.75,3.21,2.75c5.42,2.19,6.01,5.4,6.01,5.4      c4.42,3.58,4.58,6.95,4.58,6.95s6.33,2.64,5.37,6.73c-1.06,4.59-9.74-0.01-16.07,0.38c-14.49,0.89-34.83,6.22-38.98,6.89      L436.74,1121.95z"/>
				<path class="st10" d="M461.61,1135.45c4.27-0.18,8.46-0.46,12.73-0.06c4.69,0.44,9.12,1.65,13.67,2.77      c0.14,0.03,0.2-0.16,0.07-0.22c-7.91-3.33-18.05-4.2-26.47-2.68C461.4,1135.29,461.4,1135.46,461.61,1135.45z"/>
				<path class="st10" d="M459.8,1126.79c4.16,0.06,11.48,0.2,23.72,4.47c0.04,0.01,0.08-0.05,0.03-0.07      c-7.58-3.83-15.35-5.19-23.75-4.6C459.54,1126.61,459.52,1126.78,459.8,1126.79z"/>
				<path class="st10" d="M458.91,1122.11c7.07,0.37,11.49,1.49,18.61,3.63c0.04,0.01,0.07-0.05,0.03-0.07      c-7.83-3.28-11.05-3.58-18.66-3.8C458.63,1121.86,458.64,1122.1,458.91,1122.11z"/>
				<path class="st11" d="M460.06,1147.37c-1.84,0.86-1.4,1.84,2.12,2.65c3.56,0.83,18.15,1.06,17.63,6.15      c-0.51,5.11-21.15,4.46-26.91,2.65c-5.76-1.79-14.44-6.75-14.44-6.75C442.51,1151.39,452.15,1148.8,460.06,1147.37z"/>
			</g>
		</g>
		<g>
			<path class="st10" d="M364.47,1142.18c-0.09,2.2-0.31,4.44-0.61,6.66c0.03-0.08,0.06-0.16,0.09-0.24     c0.43-1.16,0.85-2.35,1.37-3.47c0.03-0.06,0.13-0.04,0.12,0.03c-0.23,1.22-0.65,2.44-1.12,3.59c-0.22,0.55-0.45,1.1-0.68,1.64     c-0.16,0.99-0.34,1.97-0.54,2.94c-0.38,1.84-2.12,9.68-2.52,11.01c-0.08,0.28-0.42,0.21-0.39-0.1c0.1-1.44,1.56-9.61,1.85-11.46     c0.57-3.55,1.35-7.17,2.3-10.64C364.35,1142.07,364.47,1142.11,364.47,1142.18z"/>
			<g>
				<path class="st3" d="M351.03,1200.77c-3.44,1.77-7.87,4.52-27.84,0.58c-1.25-0.25-2.5-0.56-3.76-0.93      c-18.73-5.63-41.2-27.65-42.46-29.21c0,0,29.75-48.24,67.8-63.4c4.7-1.87,12.49,1.74,16.8,6.24c1.54,1.61,4.88,13.44,3.6,23.03      C363.88,1146.66,354.49,1199.01,351.03,1200.77z"/>
				<g>
					<g>
						<path class="st8" d="M348.38,1136.64c0.06,2.05-0.22,4.06-0.84,6.01C347.48,1140.6,347.76,1138.6,348.38,1136.64        L348.38,1136.64z"/>
					</g>
					<g>
						<path class="st8" d="M335.4,1169.49c0.06,2.05-0.22,4.06-0.84,6.01C334.51,1173.45,334.79,1171.45,335.4,1169.49        L335.4,1169.49z"/>
					</g>
					<g>
						<path class="st8" d="M313.35,1144.67c0.06,2.05-0.22,4.06-0.84,6.01C312.45,1148.63,312.74,1146.62,313.35,1144.67        L313.35,1144.67z"/>
					</g>
					<g>
						<path class="st8" d="M356.87,1167.83c0.06,2.05-0.22,4.06-0.84,6.01C355.98,1171.79,356.26,1169.78,356.87,1167.83        L356.87,1167.83z"/>
					</g>
					<g>
						<path class="st8" d="M328.56,1140.41c2.05-0.06,4.06,0.22,6.01,0.84C332.52,1141.3,330.51,1141.02,328.56,1140.41        L328.56,1140.41z"/>
					</g>
					<g>
						<path class="st8" d="M303.53,1164.14c2.05-0.06,4.06,0.22,6.01,0.84C307.49,1165.04,305.48,1164.76,303.53,1164.14        L303.53,1164.14z"/>
					</g>
					<g>
						<path class="st8" d="M332.97,1189.82c2.05-0.06,4.06,0.22,6.01,0.84C336.93,1190.72,334.93,1190.44,332.97,1189.82        L332.97,1189.82z"/>
					</g>
					<g>
						<path class="st8" d="M295.82,1180.49c2.05-0.06,4.06,0.22,6.01,0.84C299.78,1181.39,297.77,1181.11,295.82,1180.49        L295.82,1180.49z"/>
					</g>
					<g>
						<path class="st8" d="M348.19,1113.56c2.05-0.06,4.06,0.22,6.01,0.84C352.15,1114.46,350.14,1114.17,348.19,1113.56        L348.19,1113.56z"/>
					</g>
					<g>
						<path class="st8" d="M340.91,1121.78c-1.41,1.49-3.02,2.71-4.84,3.66C337.48,1123.94,339.1,1122.72,340.91,1121.78        L340.91,1121.78z"/>
					</g>
					<g>
						<path class="st8" d="M301.23,1145.14c-1.41,1.49-3.02,2.71-4.84,3.66C297.79,1147.3,299.41,1146.08,301.23,1145.14        L301.23,1145.14z"/>
					</g>
					<g>
						<path class="st8" d="M350.77,1155.69c-1.41,1.49-3.02,2.71-4.84,3.66C347.34,1157.85,348.96,1156.63,350.77,1155.69        L350.77,1155.69z"/>
					</g>
					<g>
						<path class="st8" d="M318.69,1175.89c-1.41,1.49-3.02,2.71-4.84,3.66C315.25,1178.06,316.87,1176.84,318.69,1175.89        L318.69,1175.89z"/>
					</g>
					<g>
						<path class="st8" d="M363.07,1128.08c-1.41,1.49-3.02,2.71-4.84,3.66C359.63,1130.24,361.25,1129.02,363.07,1128.08        L363.07,1128.08z"/>
					</g>
					<g>
						<path class="st8" d="M362.4,1151.5c-1.49-1.41-2.71-3.02-3.66-4.84C360.23,1148.06,361.45,1149.68,362.4,1151.5L362.4,1151.5z        "/>
					</g>
					<g>
						<path class="st8" d="M290.88,1167.62c-1.49-1.41-2.71-3.02-3.66-4.84C288.72,1164.19,289.94,1165.81,290.88,1167.62        L290.88,1167.62z"/>
					</g>
					<g>
						<path class="st8" d="M353.7,1186.82c-1.49-1.41-2.71-3.02-3.66-4.84C351.54,1183.39,352.76,1185.01,353.7,1186.82        L353.7,1186.82z"/>
					</g>
					<g>
						<path class="st8" d="M322.22,1132.12c-1.49-1.41-2.71-3.02-3.66-4.84C320.06,1128.68,321.27,1130.3,322.22,1132.12        L322.22,1132.12z"/>
					</g>
					<g>
						<path class="st8" d="M322.78,1197.75c-1.49-1.41-2.71-3.02-3.66-4.84C320.61,1194.31,321.83,1195.93,322.78,1197.75        L322.78,1197.75z"/>
					</g>
					<g>
						<path class="st8" d="M328.13,1159.03c-1.49-1.41-2.71-3.02-3.66-4.84C325.96,1155.6,327.18,1157.21,328.13,1159.03        L328.13,1159.03z"/>
					</g>
				</g>
			</g>
		</g>
		<g>
			<g>
				<g>
					<path class="st11" d="M354.58,1126.89c-4.85-0.9-9.42-10.94-9.99-17.69c-0.04-0.46,2.27-4.14,4.86-8.74       c1.56-2.8,3.24-5.95,4.56-8.94c0.27-0.61,1.86,1.43,1.86,1.43l3.45,2.64l11.41,8.75c0,0-4.61,5.45-6.88,10.67       c-0.18,0.44-0.32,0.86-0.41,1.28c-0.02,0.06-0.03,0.13-0.06,0.21C362.72,1119.01,359.26,1127.76,354.58,1126.89z"/>
				</g>
				<path class="st10" d="M363.43,1116.3c-0.02,0.06-0.03,0.13-0.06,0.21c-0.62-0.18-1.28-0.42-1.97-0.75      c-12.49-5.85-6.98-22.59-6.98-22.59l4.89,2.42l11.41,8.75c0,0-4.61,5.45-6.88,10.67      C363.66,1115.45,363.52,1115.88,363.43,1116.3z"/>
			</g>
			<g>
				<path class="st10" d="M383.82,1068.69c0,0,5.7,3.62,5.74,10.07c0.04,6.44-2.53,12.74-3.12,12.97S383.82,1068.69,383.82,1068.69z      "/>
				<g>
					<path class="st11" d="M355.5,1072.03c-3.43,6.77-3.26,28.09,1.03,33.59c6.21,7.97,18.17,10.71,25.4,2.83       c7-7.63,6.28-35.42,1.33-40.6C375.96,1060.23,360.57,1062.02,355.5,1072.03z"/>
				</g>
				<path class="st14" d="M356.05,1105.33C356.04,1105.33,356.05,1105.32,356.05,1105.33"/>
				<g>
					<g>
						<path class="st10" d="M373.69,1089.11c-0.01-0.05-0.11,0.07-0.11,0.13c0.08,1.45-0.07,3.13-1.38,3.64        c-0.04,0.02-0.03,0.09,0.01,0.08C373.82,1092.7,374,1090.47,373.69,1089.11z"/>
						<path class="st10" d="M372.36,1087.62c-2.34-0.12-2.42,4.57-0.25,4.68C374.25,1092.42,374.32,1087.73,372.36,1087.62z"/>
					</g>
					<g>
						<path class="st10" d="M381.65,1089.06c0.01-0.06,0.11,0.07,0.11,0.13c-0.07,1.45,0.1,3.13,1.4,3.63        c0.04,0.02,0.04,0.09-0.01,0.08C381.54,1092.65,381.35,1090.42,381.65,1089.06z"/>
						<path class="st10" d="M382.97,1087.56c2.34-0.14,2.45,4.55,0.28,4.68C381.11,1092.37,381.01,1087.68,382.97,1087.56z"/>
					</g>
					<path class="st10" d="M370.89,1084.05c0.64-0.15,1.21-0.4,1.83-0.61c0.7-0.24,1.28-0.36,1.74-0.98       c0.25-0.33,0.16-0.93-0.14-1.2c-0.69-0.63-1.62-0.55-2.48-0.29c-0.93,0.28-1.57,0.73-2.11,1.53       C369.22,1083.27,370.04,1084.25,370.89,1084.05z"/>
					<path class="st10" d="M384.59,1086.13c-0.65-0.12-1.23-0.33-1.86-0.51c-0.71-0.2-1.3-0.29-1.79-0.88       c-0.27-0.32-0.21-0.92,0.08-1.21c0.66-0.67,1.59-0.64,2.46-0.42c0.94,0.23,1.6,0.65,2.19,1.42       C386.23,1085.26,385.45,1086.28,384.59,1086.13z"/>
					<path class="st10" d="M370.38,1102.88c0.34,0.35,0.68,0.82,1.21,0.87c0.51,0.05,1.1-0.17,1.57-0.34       c0.05-0.02,0.09,0.03,0.06,0.08c-0.39,0.55-1.19,0.89-1.86,0.76c-0.66-0.13-0.97-0.7-1.12-1.3       C370.22,1102.86,370.33,1102.83,370.38,1102.88z"/>
					<g>
						<path class="st10" d="M378.82,1096.67c0,0,0.06,2.18-0.05,3.19c-0.01,0.09-2.86-0.46-5.93,0.21c-0.46,0.1-0.42-0.27,0.12-0.52        c1.06-0.49,2.41-0.95,5.04-0.67c0.1-0.27-0.16-3.35,0-3.34c0.56,0.01,1.61,0.51,2.24,0.77c0-4.53-0.72-9.03-0.65-13.55        c0.01-0.16,0.24-0.18,0.27-0.04c1.09,4.66,1.2,9.88,1.32,14.56C381.21,1097.87,379.21,1096.88,378.82,1096.67z"/>
					</g>
					<g>
						<path class="st10" d="M375.93,1099.08c0,0-1.01,2.55-2.71,3.23c-1.95,0.79-2.62-0.97-0.63-2.53        C373.63,1098.96,375.93,1099.08,375.93,1099.08z"/>
						<path class="st15" d="M373.9,1101.92c-0.22,0.17-0.44,0.31-0.68,0.4c-1.79,0.72-2.5-0.71-1.06-2.15        C373.14,1100.24,374.21,1100.6,373.9,1101.92z"/>
					</g>
				</g>
				<g>
					<path class="st10" d="M354.51,1090.27c2.36,0.72,5.07-6.36,5.83-9.09c0.68-2.4,1.45-10.02,1.57-10.54       c0.11-0.52,10.27,6.74,16.21,5c5.94-1.74,9.91-7.07,9.99-9.55c0.08-2.49-7.29-8.8-13.67-9.13c-6.38-0.32-15.02,7.79-15.02,7.79       s2.93-3.5,2.83-3.79c-0.1-0.29-4.22,1.36-4.98,4.3c0,0,0.82-3.69,0.5-3.76c-0.31-0.07-3.52,3.09-2.79,5.48       c0,0-3.71,3.21-4.05,6.73C350.6,1077.24,351.75,1089.42,354.51,1090.27z"/>
					<path class="st10" d="M382.35,1074.41c-1.81,0.83-3.62,1.74-5.61,2.01c-2.16,0.28-4.4-0.26-6.4-1.03       c-2.05-0.79-3.92-1.93-5.62-3.32c-1.49-1.22-2.8-2.7-4.39-3.79c-0.4-0.27-0.86,0.3-0.61,0.66c2.41,3.61,6.67,6.63,10.78,7.93       c4.32,1.37,8.38,0.41,11.88-2.42C382.39,1074.44,382.38,1074.39,382.35,1074.41z"/>
				</g>
				<g>
					<path class="st11" d="M356.98,1089.64c0,0-3.66-7.43-6.96-6.22c-3.3,1.2-1.27,11.46,2.1,13.34c3.37,1.88,5.17-1.2,5.17-1.2       L356.98,1089.64z"/>
					<path class="st10" d="M350.68,1086.34c-0.06-0.01-0.08,0.06-0.03,0.09c2.35,1.4,3.31,3.92,3.86,6.47       c-0.6-1.04-1.54-1.7-2.92-1.01c-0.07,0.04-0.03,0.15,0.05,0.14c1.06-0.06,1.77,0.23,2.34,1.16c0.4,0.66,0.62,1.44,0.87,2.17       c0.08,0.24,0.51,0.18,0.46-0.09c0-0.02-0.01-0.04-0.01-0.06C355.85,1092.04,354.06,1087.19,350.68,1086.34z"/>
				</g>
			</g>
		</g>
		<g>
			<g>
				<path class="st11" d="M332.81,1122.78c-2.52,14.6,13.24,63.79,23.39,72.98c15.09,13.66,43,22.65,53.11,25.57      c4.41,1.27,16.6-29.74,12.14-31.78c-9.55-4.37-39.21-13.63-42.01-16c-2.79-2.38-19.84-26.9-27.42-41.05      C341.86,1113.52,334.09,1115.4,332.81,1122.78z"/>
				<g>
					<path class="st11" d="M413.94,1186.82c0,0,13.16,3.35,21.66,5.95c4.74,1.45,12.65,4.66,15.65,7.32       c4.48,3.98,20.7,23.47,16.05,27.5c-4.2,3.65-16-14.87-16-14.87s13.56,17.63,7.69,21.1c-5.87,3.47-16.42-19.23-16.42-19.23       s13.53,18.43,6.91,21.05c-5,1.98-15.72-18.04-15.72-18.04s11.52,15.92,6.46,18.18c-5.59,2.49-16.64-15.36-16.64-15.36       c-13.81,3.57-21.85-0.38-27.23-3.87C395.07,1215.69,413.94,1186.82,413.94,1186.82z"/>
					<g>
						<path class="st10" d="M447.01,1206.33c1.67,2.01,3.37,4.04,4.85,6.2c1.48,2.16,2.89,4.36,4.17,6.65        c3.13,5.6,4.21,9.6,4.12,9.36c-2.22-5.67-7.41-13.46-8.89-15.62c-1.48-2.15-2.85-4.38-4.33-6.53        C446.88,1206.33,446.97,1206.28,447.01,1206.33z"/>
						<path class="st10" d="M439.13,1211.54c2.86,2.27,8.86,10.7,11.17,16.35c0.1,0.24-0.03,0.22-0.17,0        c-1.81-2.79-9.13-13.62-11.06-16.31C439.03,1211.55,439.09,1211.51,439.13,1211.54z"/>
						<path class="st10" d="M431.56,1214.8c3.31,3.28,6.09,7.75,8.27,12.92c0.1,0.23-0.09,0.2-0.22-0.02        c-2.67-4.35-4.73-7.77-8.19-12.78C431.37,1214.84,431.48,1214.73,431.56,1214.8z"/>
					</g>
				</g>
			</g>
			<g>
				<path class="st3" d="M347.16,1123.85c-11.77-16.64-18.8-10.47-16.44,7.59c2.21,16.89,8.13,37.02,8.13,37.02l29.69-14.38      C368.54,1154.08,354.69,1134.5,347.16,1123.85z"/>
				<g>
					<g>
						<path class="st8" d="M354.35,1130.4c0.68,1.93,1.03,3.93,1.04,5.98C354.7,1134.44,354.36,1132.44,354.35,1130.4L354.35,1130.4        z"/>
					</g>
					<g>
						<path class="st8" d="M336.78,1140.51c1.93-0.68,3.93-1.03,5.98-1.04C340.82,1140.16,338.83,1140.5,336.78,1140.51        L336.78,1140.51z"/>
					</g>
					<g>
						<path class="st8" d="M337.54,1114.64c-0.88,1.85-2.05,3.51-3.49,4.96C334.93,1117.75,336.1,1116.09,337.54,1114.64        L337.54,1114.64z"/>
					</g>
					<g>
						<path class="st8" d="M362.6,1148.29c-0.88,1.85-2.05,3.51-3.49,4.96C359.99,1151.4,361.16,1149.74,362.6,1148.29        L362.6,1148.29z"/>
					</g>
					<g>
						<path class="st8" d="M342.05,1158.38c-1.85-0.88-3.51-2.05-4.96-3.49C338.94,1155.77,340.6,1156.94,342.05,1158.38        L342.05,1158.38z"/>
					</g>
				</g>
				<path class="st10" d="M351.1,1128.86c1.58,2.17,3.22,4.31,4.85,6.44c-0.41-1.08-0.77-2.17-1.09-3.29      c-0.01-0.05,0.06-0.07,0.08-0.02c0.33,0.86,0.7,1.7,1.01,2.56c0.15,0.41,0.31,0.83,0.47,1.24c0.03,0.09,0.07,0.18,0.1,0.26      c1.27,1.67,2.53,3.34,3.76,5.04c1.46,2.03,2.86,4.09,4.28,6.15c1.46,2.13,2.85,4.63,4.39,6.69c0.13,0.18-2.63,1.29-2.89,1.44      c-0.26,0.15-0.44-0.11-0.16-0.19c0.26-0.08,2.45-1.42,2.47-1.45c-1.41-2.08-3.05-4-4.53-6.03c-1.47-2.02-2.95-4.04-4.38-6.09      c-2.9-4.17-5.56-8.5-8.44-12.69C350.98,1128.86,351.06,1128.81,351.1,1128.86z"/>
				<path class="st10" d="M331.45,1143.39c0.45,0.88,0.94,1.75,1.34,2.65c0.17,0.37,0.33,0.75,0.49,1.12      c-0.68-3.22-1.34-6.44-2-9.66c-0.01-0.04,0.05-0.06,0.06-0.02c1.36,5.22,2.74,10.43,4,15.67c1.21,4.99,2.66,10.05,3.35,15.15      c0.41-0.14,2.72-1.09,2.79-0.94c0.07,0.15-3.02,1.6-3.06,1.48c-1.68-4.98-2.72-10.64-3.87-15.76c-0.32-1.44-0.62-2.89-0.93-4.34      c-0.33-0.87-0.74-1.71-1.14-2.56c-0.42-0.9-0.76-1.83-1.12-2.75C331.33,1143.38,331.42,1143.34,331.45,1143.39z"/>
				<path class="st10" d="M339.32,1163.5c4.13-2.33,21.36-11.25,25.22-12.93c0.27-0.12,0.41,0.02,0.14,0.18      c-12.19,7.26-21.1,10.83-25.26,12.91C339.31,1163.7,339.21,1163.56,339.32,1163.5z"/>
			</g>
		</g>
	</g>
</g>
<g>
	<g>
		<g>
			<polygon class="st16" points="811.53,1502.29 418.9,1502.29 475.67,1180.31 868.3,1180.31    "/>
			<polygon class="st16" points="610.05,1146.96 481.55,1146.96 475.67,1180.31 613.19,1180.31    "/>
		</g>
		<g>
			<g>
				<polygon class="st17" points="811.53,1502.29 418.9,1502.29 475.67,1180.31 868.3,1180.31     "/>
				<polygon class="st17" points="610.05,1146.96 481.55,1146.96 475.67,1180.31 613.19,1180.31     "/>
			</g>
		</g>
	</g>
	<g>
		<g>
			<path class="st10" d="M467.68,1160.57c-0.68-3.73-0.69-7.48,0-11.21C468.37,1153.08,468.37,1156.83,467.68,1160.57     L467.68,1160.57z"/>
		</g>
		<g>
			<path class="st10" d="M456.27,1163.87c-2.46-2.89-4.34-6.13-5.61-9.71C453.12,1157.04,454.99,1160.29,456.27,1163.87     L456.27,1163.87z"/>
		</g>
		<g>
			<path class="st10" d="M448.03,1172.44c-3.57-1.27-6.82-3.14-9.71-5.61C441.89,1168.1,445.14,1169.98,448.03,1172.44     L448.03,1172.44z"/>
		</g>
		<g>
			<path class="st10" d="M445.18,1183.98c-3.73,0.68-7.48,0.69-11.21,0C437.7,1183.29,441.45,1183.29,445.18,1183.98L445.18,1183.98     z"/>
		</g>
		<g>
			<path class="st10" d="M448.48,1195.4c-2.89,2.46-6.13,4.34-9.71,5.61C441.66,1198.54,444.91,1196.67,448.48,1195.4L448.48,1195.4     z"/>
		</g>
		<g>
			<path class="st10" d="M457.05,1203.63c-1.27,3.57-3.14,6.83-5.61,9.71C452.71,1209.77,454.59,1206.52,457.05,1203.63     L457.05,1203.63z"/>
		</g>
		<g>
			<path class="st10" d="M468.59,1206.48c0.68,3.73,0.69,7.48,0,11.21C467.9,1213.97,467.9,1210.22,468.59,1206.48L468.59,1206.48z"/>
		</g>
		<g>
			<path class="st10" d="M480.01,1203.18c2.46,2.89,4.34,6.13,5.61,9.71C483.15,1210.01,481.28,1206.76,480.01,1203.18     L480.01,1203.18z"/>
		</g>
		<g>
			<path class="st10" d="M488.25,1194.61c3.57,1.27,6.83,3.14,9.71,5.61C494.38,1198.95,491.14,1197.07,488.25,1194.61     L488.25,1194.61z"/>
		</g>
		<g>
			<path class="st10" d="M491.1,1183.07c3.73-0.68,7.48-0.69,11.21,0C498.58,1183.76,494.83,1183.76,491.1,1183.07L491.1,1183.07z"/>
		</g>
		<g>
			<path class="st10" d="M487.79,1171.65c2.89-2.46,6.13-4.34,9.71-5.61C494.62,1168.51,491.37,1170.38,487.79,1171.65     L487.79,1171.65z"/>
		</g>
		<g>
			<path class="st10" d="M479.22,1163.42c1.27-3.57,3.14-6.83,5.61-9.71C483.56,1157.28,481.68,1160.53,479.22,1163.42     L479.22,1163.42z"/>
		</g>
	</g>
	<polygon class="st3" points="810.95,1502.29 417.47,1502.29 361.61,1192 755.09,1192  "/>
	<g>
		<circle class="st8" cx="497.96" cy="1365.33" r="16.35"/>
		<circle class="st8" cx="627.25" cy="1365.33" r="16.35"/>
		<path class="st8" d="M586.09,1384.29l-0.9-1.71c-0.08-0.15-8.53-15.77-25.53-15.77c-15.5,0-19.28,14.7-19.44,15.33l-0.46,1.87    l-3.75-0.91l0.45-1.88c0.04-0.18,4.61-18.29,23.2-18.29c19.38,0,28.57,17.11,28.95,17.84l0.9,1.71L586.09,1384.29z"/>
	</g>
</g>
<g>
	<g>
		<g>
			<path class="st18" d="M784.84,1363.45c0.65-0.14,1.3-0.29,1.95-0.45"/>
			<path class="st19" d="M790.64,1361.93c20.44-6.33,37.83-22.19,39.43-40.82c3.42-39.95-45.23-62.02-40.2-108.18     c4.79-44.04,50.98-47.18,69.5-41.09c20.45,6.72,13.44,26.38-5.07,23.84c-32.1-4.4-52.28-39.3-37.03-78.88     c11.78-30.58,41.73-41.46,52.43-44.45"/>
			<path class="st18" d="M871.62,1071.84c1.25-0.31,1.95-0.44,1.95-0.44"/>
		</g>
	</g>
	<g>
		<path class="st10" d="M894.01,1064.28c-3.29-10.19-25.3-6.53-21,6.78C877.3,1084.37,897.3,1074.47,894.01,1064.28z"/>
		<g>
			<path class="st6" d="M861.03,1060.17c0.16-4.47,6.38-7.9,15.16-6.32c8.78,1.59,17.06,7.5,17.06,7.5s-8.69,5.31-17.56,6.25     C866.82,1068.55,860.87,1064.66,861.03,1060.17z"/>
			<g>
				<path class="st10" d="M893.25,1061.36c-4.56,0.03-9.12-0.12-13.67-0.26c-4.55-0.2-9.11-0.38-13.65-0.74      c4.56-0.03,9.12,0.12,13.67,0.26C884.16,1060.81,888.71,1060.99,893.25,1061.36z"/>
				<path class="st10" d="M869.86,1056.22c1.32,0.59,2.54,1.34,3.77,2.07c1.2,0.78,2.41,1.55,3.51,2.48      c-1.32-0.59-2.54-1.34-3.77-2.07C872.18,1057.92,870.97,1057.15,869.86,1056.22z"/>
				<path class="st10" d="M881.8,1060.94c-1.16,0.98-2.41,1.8-3.66,2.64c-1.28,0.79-2.55,1.59-3.92,2.23      c1.15-0.98,2.41-1.8,3.66-2.64C879.16,1062.38,880.43,1061.58,881.8,1060.94z"/>
				<path class="st10" d="M883.13,1058.42c0.68,0.29,1.24,0.73,1.82,1.16c0.54,0.47,1.09,0.93,1.51,1.53      c-0.68-0.29-1.24-0.73-1.82-1.16C884.11,1059.48,883.56,1059.03,883.13,1058.42z"/>
			</g>
		</g>
		<g>
			<path class="st6" d="M869.4,1086.69c2.75,3.53,9.8,2.68,15.99-3.74c6.2-6.42,9.45-16.06,9.45-16.06s-10.15,0.77-17.9,5.2     C869.2,1076.51,866.65,1083.14,869.4,1086.69z"/>
			<g>
				<path class="st10" d="M894.85,1066.88c-3.72,2.64-7.32,5.43-10.94,8.21c-3.58,2.82-7.17,5.63-10.64,8.59      c3.72-2.64,7.32-5.43,10.94-8.21C887.79,1072.65,891.37,1069.84,894.85,1066.88z"/>
				<path class="st10" d="M878.88,1084.73c0.72-1.25,1.28-2.57,1.84-3.89c0.51-1.34,1.04-2.67,1.4-4.07      c-0.73,1.25-1.28,2.57-1.84,3.89C879.76,1082,879.24,1083.33,878.88,1084.73z"/>
				<path class="st10" d="M885.81,1073.92c-1.51-0.12-3.01-0.05-4.51,0c-1.5,0.11-3,0.2-4.49,0.48c1.51,0.12,3.01,0.05,4.51,0      C882.82,1074.29,884.32,1074.2,885.81,1073.92z"/>
				<path class="st10" d="M888.35,1075.19c0.38-0.64,0.58-1.32,0.8-2c0.16-0.7,0.34-1.39,0.33-2.13c-0.38,0.64-0.58,1.32-0.8,2      C888.52,1073.75,888.35,1074.44,888.35,1075.19z"/>
			</g>
		</g>
		<path class="st20" d="M894.01,1064.28c-2.03,0.66-4.21-0.46-4.86-2.49c-0.66-2.03,0.46-4.21,2.49-4.86    c2.03-0.66,4.21,0.46,4.86,2.49C897.15,1061.45,896.04,1063.63,894.01,1064.28z"/>
		<path class="st20" d="M896.38,1071.63c-2.03,0.66-4.21-0.46-4.86-2.49c-0.66-2.03,0.46-4.21,2.49-4.86s4.21,0.46,4.86,2.49    C899.52,1068.8,898.41,1070.97,896.38,1071.63z"/>
	</g>
</g>
<g>
	<g>
		<path class="st8" d="M473.89,1068.35c-1.85,17.64-17.65,30.45-35.29,28.61c-7.13-0.75-13.47-3.77-18.37-8.29l-16.07,2.36    l8.04-13.89c-1.95-4.75-2.77-10.03-2.2-15.47c1.84-17.64,17.65-30.45,35.29-28.61C462.92,1034.9,475.74,1050.71,473.89,1068.35z"/>
		<path class="st10" d="M473.89,1068.35c-0.67,5.86-2.81,11.61-6.48,16.28c-0.84,1.22-1.93,2.25-2.91,3.35    c-1.12,0.97-2.16,2.04-3.39,2.87c-2.35,1.81-4.99,3.23-7.75,4.31c-2.75,1.16-5.7,1.71-8.65,2.06c-1.49,0.08-2.97,0.22-4.46,0.08    c-1.49-0.03-2.98-0.19-4.44-0.46c-5.88-1.06-11.44-3.82-15.89-7.85l0.38,0.12l-16.05,2.46l-1.16,0.18l0.59-1.03l7.99-13.92    l-0.04,0.55c-3.89-9.17-3.02-20.09,1.98-28.63c2.49-4.28,5.96-7.96,10.06-10.71c4.1-2.76,8.85-4.48,13.71-5.14    c4.87-0.65,9.88-0.2,14.52,1.34c4.64,1.56,8.9,4.19,12.39,7.6C471.37,1048.56,474.93,1058.68,473.89,1068.35z M473.89,1068.35    c0.98-9.68-2.66-19.73-9.75-26.38c-3.52-3.33-7.79-5.85-12.39-7.31c-4.61-1.44-9.54-1.79-14.29-1.07    c-4.74,0.73-9.34,2.49-13.27,5.24c-3.92,2.75-7.22,6.35-9.61,10.48c-2.43,4.12-3.69,8.85-4.08,13.59    c-0.3,4.76,0.48,9.57,2.26,13.99l0.12,0.29l-0.15,0.26l-8.09,13.86l-0.57-0.85l16.08-2.25l0.22-0.03l0.16,0.15    c4.25,3.99,9.63,6.78,15.38,7.92c1.44,0.29,2.89,0.47,4.36,0.53c1.46,0.15,2.93,0.05,4.4-0.01c2.91-0.3,5.84-0.79,8.58-1.89    c2.75-1.03,5.41-2.38,7.75-4.18c1.23-0.82,2.27-1.87,3.39-2.83c0.99-1.09,2.07-2.1,2.92-3.32    C471,1079.93,473.18,1074.21,473.89,1068.35z"/>
	</g>
	<g>
		<path class="st1" d="M426.24,1079.98c0-1.92,1.33-3.3,3.14-3.3c1.92,0,3.14,1.39,3.14,3.3c0,1.86-1.23,3.3-3.14,3.3    C427.52,1083.29,426.24,1081.85,426.24,1079.98z M427.57,1072.37l-0.75-25.57h5.11l-0.75,25.57H427.57z"/>
		<path class="st1" d="M438.49,1079.98c0-1.92,1.33-3.3,3.14-3.3c1.92,0,3.14,1.39,3.14,3.3c0,1.86-1.23,3.3-3.14,3.3    C439.77,1083.29,438.49,1081.85,438.49,1079.98z M439.82,1072.37l-0.75-25.57h5.11l-0.75,25.57H439.82z"/>
		<path class="st1" d="M450.74,1079.98c0-1.92,1.33-3.3,3.14-3.3c1.92,0,3.14,1.39,3.14,3.3c0,1.86-1.23,3.3-3.14,3.3    C452.02,1083.29,450.74,1081.85,450.74,1079.98z M452.08,1072.37l-0.75-25.57h5.11l-0.75,25.57H452.08z"/>
	</g>
</g>
<g>
	<path class="st1" d="M295.22,792.72c-0.49,0-0.87-0.14-1.13-0.43c-0.27-0.29-0.4-0.66-0.4-1.1v-43.57c0-0.49,0.13-0.88,0.4-1.17   c0.27-0.29,0.64-0.43,1.13-0.43h27.23c0.49,0,0.87,0.15,1.13,0.43c0.27,0.29,0.4,0.68,0.4,1.17v2.67c0,0.49-0.13,0.87-0.4,1.13   c-0.27,0.27-0.65,0.4-1.13,0.4h-22.29v15.55h20.95c0.49,0,0.87,0.15,1.13,0.43c0.27,0.29,0.4,0.68,0.4,1.17v2.67   c0,0.45-0.13,0.81-0.4,1.1c-0.27,0.29-0.65,0.43-1.13,0.43h-20.95v18.02c0,0.45-0.15,0.81-0.43,1.1c-0.29,0.29-0.68,0.43-1.17,0.43   H295.22z"/>
	<path class="st1" d="M334.19,792.72c-0.49,0-0.87-0.14-1.13-0.43c-0.27-0.29-0.4-0.66-0.4-1.1v-43.57c0-0.49,0.13-0.88,0.4-1.17   c0.27-0.29,0.64-0.43,1.13-0.43h27.56c0.49,0,0.87,0.15,1.13,0.43c0.27,0.29,0.4,0.68,0.4,1.17v2.54c0,0.49-0.13,0.87-0.4,1.13   c-0.27,0.27-0.65,0.4-1.13,0.4h-22.69v14.61h21.22c0.49,0,0.87,0.15,1.13,0.43c0.27,0.29,0.4,0.68,0.4,1.17v2.47   c0,0.45-0.13,0.81-0.4,1.1c-0.27,0.29-0.65,0.43-1.13,0.43h-21.22v15.15h23.22c0.49,0,0.87,0.13,1.13,0.4   c0.27,0.27,0.4,0.65,0.4,1.13v2.6c0,0.45-0.13,0.81-0.4,1.1c-0.27,0.29-0.65,0.43-1.13,0.43H334.19z"/>
	<path class="st1" d="M374.63,792.72c-0.49,0-0.87-0.14-1.13-0.43c-0.27-0.29-0.4-0.66-0.4-1.1v-43.57c0-0.49,0.13-0.88,0.4-1.17   c0.27-0.29,0.64-0.43,1.13-0.43h27.56c0.49,0,0.87,0.15,1.13,0.43c0.27,0.29,0.4,0.68,0.4,1.17v2.54c0,0.49-0.13,0.87-0.4,1.13   c-0.27,0.27-0.65,0.4-1.13,0.4H379.5v14.61h21.22c0.49,0,0.87,0.15,1.13,0.43c0.27,0.29,0.4,0.68,0.4,1.17v2.47   c0,0.45-0.13,0.81-0.4,1.1c-0.27,0.29-0.65,0.43-1.13,0.43H379.5v15.15h23.22c0.49,0,0.87,0.13,1.13,0.4   c0.27,0.27,0.4,0.65,0.4,1.13v2.6c0,0.45-0.13,0.81-0.4,1.1c-0.27,0.29-0.65,0.43-1.13,0.43H374.63z"/>
	<path class="st1" d="M415.07,792.72c-0.49,0-0.87-0.14-1.13-0.43c-0.27-0.29-0.4-0.66-0.4-1.1v-43.64c0-0.44,0.13-0.81,0.4-1.1   c0.27-0.29,0.64-0.43,1.13-0.43h3.54c0.44,0,0.8,0.15,1.07,0.43c0.27,0.29,0.4,0.66,0.4,1.1v39.37h22.22   c0.49,0,0.87,0.15,1.13,0.43c0.27,0.29,0.4,0.68,0.4,1.17v2.67c0,0.45-0.13,0.81-0.4,1.1c-0.27,0.29-0.65,0.43-1.13,0.43H415.07z"/>
	<path class="st1" d="M452.64,792.72c-0.49,0-0.87-0.14-1.13-0.43c-0.27-0.29-0.4-0.66-0.4-1.1v-43.64c0-0.44,0.13-0.81,0.4-1.1   c0.27-0.29,0.64-0.43,1.13-0.43h3.54c0.44,0,0.81,0.15,1.1,0.43c0.29,0.29,0.43,0.66,0.43,1.1v43.64c0,0.45-0.14,0.81-0.43,1.1   c-0.29,0.29-0.66,0.43-1.1,0.43H452.64z"/>
	<path class="st1" d="M470.86,792.72c-0.49,0-0.87-0.14-1.13-0.43c-0.27-0.29-0.4-0.66-0.4-1.1v-43.57c0-0.49,0.13-0.88,0.4-1.17   c0.27-0.29,0.64-0.43,1.13-0.43h3.07c0.53,0,0.93,0.12,1.2,0.37c0.27,0.25,0.42,0.43,0.47,0.57l22.15,34.03v-33.36   c0-0.49,0.13-0.88,0.4-1.17c0.27-0.29,0.64-0.43,1.13-0.43h3.2c0.49,0,0.88,0.15,1.17,0.43c0.29,0.29,0.43,0.68,0.43,1.17v43.51   c0,0.45-0.15,0.82-0.43,1.13c-0.29,0.31-0.66,0.47-1.1,0.47h-3.2c-0.49,0-0.86-0.13-1.1-0.4c-0.25-0.27-0.41-0.44-0.5-0.53   l-22.09-33.7v33.1c0,0.45-0.15,0.81-0.43,1.1c-0.29,0.29-0.68,0.43-1.17,0.43H470.86z"/>
	<path class="st1" d="M532.58,793.39c-3.92,0-7.24-0.73-9.98-2.2c-2.74-1.47-4.83-3.54-6.27-6.21c-1.45-2.67-2.26-5.81-2.44-9.41   c-0.04-1.96-0.07-4.04-0.07-6.24c0-2.2,0.02-4.3,0.07-6.31c0.18-3.6,0.99-6.72,2.44-9.34c1.44-2.62,3.55-4.67,6.31-6.14   c2.76-1.47,6.07-2.2,9.94-2.2c3.16,0,5.89,0.45,8.21,1.33c2.31,0.89,4.21,2.01,5.71,3.37c1.49,1.36,2.6,2.77,3.34,4.24   c0.73,1.47,1.12,2.76,1.17,3.87c0.04,0.4-0.07,0.72-0.33,0.97c-0.27,0.25-0.62,0.37-1.07,0.37h-3.94c-0.45,0-0.77-0.09-0.97-0.27   c-0.2-0.18-0.39-0.49-0.57-0.93c-0.4-1.16-1.06-2.29-1.97-3.4c-0.91-1.11-2.14-2.04-3.67-2.77c-1.53-0.73-3.5-1.1-5.91-1.1   c-3.51,0-6.35,0.96-8.51,2.87c-2.16,1.91-3.33,5.07-3.5,9.48c-0.13,3.96-0.13,7.92,0,11.88c0.18,4.45,1.36,7.64,3.54,9.58   c2.18,1.94,5.03,2.9,8.54,2.9c2.36,0,4.46-0.43,6.31-1.3c1.85-0.87,3.3-2.21,4.37-4.04c1.07-1.82,1.6-4.14,1.6-6.94v-2.8h-10.01   c-0.44,0-0.81-0.14-1.1-0.43c-0.29-0.29-0.43-0.68-0.43-1.17v-2.14c0-0.49,0.14-0.88,0.43-1.17c0.29-0.29,0.66-0.43,1.1-0.43H550   c0.49,0,0.87,0.15,1.13,0.43c0.27,0.29,0.4,0.68,0.4,1.17v6.41c0,3.65-0.75,6.83-2.24,9.54c-1.49,2.71-3.66,4.82-6.51,6.31   C539.94,792.64,536.54,793.39,532.58,793.39z"/>
	<path class="st1" d="M578.96,792.72c-0.49,0-0.87-0.14-1.13-0.43c-0.27-0.29-0.4-0.66-0.4-1.1v-43.57c0-0.49,0.13-0.88,0.4-1.17   c0.27-0.29,0.64-0.43,1.13-0.43h3.4c0.49,0,0.88,0.15,1.17,0.43c0.29,0.29,0.43,0.68,0.43,1.17v18.42h22.96v-18.42   c0-0.49,0.14-0.88,0.43-1.17c0.29-0.29,0.66-0.43,1.1-0.43h3.4c0.49,0,0.88,0.15,1.17,0.43c0.29,0.29,0.43,0.68,0.43,1.17v43.57   c0,0.45-0.15,0.81-0.43,1.1c-0.29,0.29-0.68,0.43-1.17,0.43h-3.4c-0.45,0-0.81-0.14-1.1-0.43c-0.29-0.29-0.43-0.66-0.43-1.1v-19.15   h-22.96v19.15c0,0.45-0.15,0.81-0.43,1.1c-0.29,0.29-0.68,0.43-1.17,0.43H578.96z"/>
	<path class="st1" d="M642.62,793.39c-3.74,0-6.95-0.67-9.64-2c-2.69-1.33-4.76-3.37-6.21-6.11c-1.45-2.74-2.17-6.26-2.17-10.58   v-27.09c0-0.49,0.13-0.88,0.4-1.17c0.27-0.29,0.64-0.43,1.13-0.43h3.4c0.49,0,0.88,0.15,1.17,0.43c0.29,0.29,0.43,0.68,0.43,1.17   v27.23c0,4.36,1.02,7.59,3.07,9.68c2.05,2.09,4.85,3.14,8.41,3.14c3.51,0,6.31-1.04,8.37-3.14c2.07-2.09,3.1-5.32,3.1-9.68v-27.23   c0-0.49,0.14-0.88,0.43-1.17c0.29-0.29,0.66-0.43,1.1-0.43h3.47c0.44,0,0.81,0.15,1.1,0.43c0.29,0.29,0.43,0.68,0.43,1.17v27.09   c0,4.32-0.72,7.84-2.17,10.58c-1.45,2.74-3.5,4.77-6.17,6.11C649.63,792.72,646.4,793.39,642.62,793.39z"/>
	<path class="st1" d="M673.31,792.72c-0.49,0-0.87-0.14-1.13-0.43c-0.27-0.29-0.4-0.66-0.4-1.1v-43.57c0-0.49,0.13-0.88,0.4-1.17   c0.27-0.29,0.64-0.43,1.13-0.43h3.07c0.53,0,0.93,0.12,1.2,0.37c0.27,0.25,0.42,0.43,0.47,0.57l22.15,34.03v-33.36   c0-0.49,0.13-0.88,0.4-1.17c0.27-0.29,0.64-0.43,1.13-0.43h3.2c0.49,0,0.88,0.15,1.17,0.43c0.29,0.29,0.43,0.68,0.43,1.17v43.51   c0,0.45-0.15,0.82-0.43,1.13c-0.29,0.31-0.66,0.47-1.1,0.47h-3.2c-0.49,0-0.86-0.13-1.1-0.4c-0.25-0.27-0.41-0.44-0.5-0.53   l-22.09-33.7v33.1c0,0.45-0.15,0.81-0.43,1.1c-0.29,0.29-0.68,0.43-1.17,0.43H673.31z"/>
	<path class="st1" d="M735.04,793.39c-3.92,0-7.24-0.73-9.98-2.2c-2.74-1.47-4.83-3.54-6.27-6.21c-1.45-2.67-2.26-5.81-2.44-9.41   c-0.04-1.96-0.07-4.04-0.07-6.24c0-2.2,0.02-4.3,0.07-6.31c0.18-3.6,0.99-6.72,2.44-9.34c1.44-2.62,3.55-4.67,6.31-6.14   c2.76-1.47,6.07-2.2,9.94-2.2c3.16,0,5.89,0.45,8.21,1.33c2.31,0.89,4.21,2.01,5.71,3.37c1.49,1.36,2.6,2.77,3.34,4.24   c0.73,1.47,1.12,2.76,1.17,3.87c0.04,0.4-0.07,0.72-0.33,0.97c-0.27,0.25-0.62,0.37-1.07,0.37h-3.94c-0.45,0-0.77-0.09-0.97-0.27   c-0.2-0.18-0.39-0.49-0.57-0.93c-0.4-1.16-1.06-2.29-1.97-3.4c-0.91-1.11-2.14-2.04-3.67-2.77c-1.53-0.73-3.5-1.1-5.91-1.1   c-3.51,0-6.35,0.96-8.51,2.87c-2.16,1.91-3.33,5.07-3.5,9.48c-0.13,3.96-0.13,7.92,0,11.88c0.18,4.45,1.36,7.64,3.54,9.58   c2.18,1.94,5.03,2.9,8.54,2.9c2.36,0,4.46-0.43,6.31-1.3c1.85-0.87,3.3-2.21,4.37-4.04c1.07-1.82,1.6-4.14,1.6-6.94v-2.8h-10.01   c-0.44,0-0.81-0.14-1.1-0.43c-0.29-0.29-0.43-0.68-0.43-1.17v-2.14c0-0.49,0.14-0.88,0.43-1.17c0.29-0.29,0.66-0.43,1.1-0.43h15.08   c0.49,0,0.87,0.15,1.13,0.43c0.27,0.29,0.4,0.68,0.4,1.17v6.41c0,3.65-0.75,6.83-2.24,9.54c-1.49,2.71-3.66,4.82-6.51,6.31   C742.4,792.64,739,793.39,735.04,793.39z"/>
	<path class="st1" d="M765.07,792.72c-0.49,0-0.87-0.14-1.13-0.43c-0.27-0.29-0.4-0.66-0.4-1.1v-43.57c0-0.49,0.13-0.88,0.4-1.17   c0.27-0.29,0.64-0.43,1.13-0.43h16.28c5.03,0,9.01,1.18,11.94,3.54c2.94,2.36,4.4,5.85,4.4,10.48c0,3.43-0.86,6.22-2.57,8.37   c-1.71,2.16-4.04,3.66-6.97,4.5l10.28,17.75c0.13,0.27,0.2,0.51,0.2,0.73c0,0.36-0.15,0.67-0.43,0.93c-0.29,0.27-0.61,0.4-0.97,0.4   h-3.2c-0.76,0-1.31-0.2-1.67-0.6c-0.36-0.4-0.67-0.8-0.93-1.2l-9.68-16.95h-11.68v17.22c0,0.45-0.15,0.81-0.43,1.1   c-0.29,0.29-0.68,0.43-1.17,0.43H765.07z M770.07,768.3h11.01c3.34,0,5.83-0.7,7.47-2.1c1.65-1.4,2.47-3.48,2.47-6.24   c0-2.71-0.81-4.78-2.44-6.21c-1.62-1.42-4.13-2.14-7.51-2.14h-11.01V768.3z"/>
	<path class="st1" d="M819.65,792.72c-0.45,0-0.81-0.14-1.1-0.43c-0.29-0.29-0.43-0.66-0.43-1.1v-15.75l-16.08-27.23   c-0.04-0.13-0.09-0.27-0.13-0.4c-0.04-0.13-0.07-0.29-0.07-0.47c0-0.36,0.13-0.67,0.4-0.93c0.27-0.27,0.58-0.4,0.93-0.4h3.47   c0.4,0,0.76,0.1,1.07,0.3c0.31,0.2,0.53,0.48,0.67,0.83l13.01,21.62l13.01-21.62c0.22-0.36,0.48-0.63,0.77-0.83   c0.29-0.2,0.63-0.3,1.03-0.3h3.4c0.4,0,0.73,0.13,1,0.4c0.27,0.27,0.4,0.58,0.4,0.93c0,0.18-0.02,0.33-0.07,0.47   c-0.04,0.13-0.11,0.27-0.2,0.4l-16.02,27.23v15.75c0,0.45-0.14,0.81-0.43,1.1c-0.29,0.29-0.68,0.43-1.17,0.43H819.65z"/>
	<path class="st3" d="M312.82,875.59c-5.72,0-10.7-0.93-14.93-2.8c-4.23-1.87-7.53-4.68-9.89-8.44c-2.36-3.76-3.67-8.47-3.92-14.13   c-0.06-2.67-0.09-5.35-0.09-8.02c0-2.67,0.03-5.38,0.09-8.12c0.25-5.6,1.57-10.31,3.96-14.13c2.39-3.83,5.71-6.7,9.94-8.63   c4.23-1.93,9.17-2.89,14.83-2.89c5.6,0,10.53,0.97,14.79,2.89c4.26,1.93,7.6,4.8,10.03,8.63c2.43,3.82,3.73,8.54,3.92,14.13   c0.12,2.74,0.19,5.44,0.19,8.12c0,2.67-0.06,5.35-0.19,8.02c-0.25,5.66-1.56,10.37-3.92,14.13c-2.36,3.76-5.66,6.58-9.89,8.44   C323.52,874.66,318.54,875.59,312.82,875.59z M312.82,862.16c3.3,0,5.98-0.99,8.07-2.99c2.08-1.99,3.19-5.16,3.31-9.52   c0.12-2.74,0.19-5.32,0.19-7.74c0-2.43-0.06-4.94-0.19-7.56c-0.13-2.92-0.67-5.3-1.63-7.14c-0.96-1.83-2.29-3.19-3.96-4.06   c-1.68-0.87-3.61-1.31-5.78-1.31c-2.12,0-4.01,0.44-5.69,1.31c-1.68,0.87-3.02,2.22-4.01,4.06c-1,1.83-1.56,4.21-1.68,7.14   c-0.06,2.61-0.09,5.13-0.09,7.56c0,2.43,0.03,5.01,0.09,7.74c0.19,4.35,1.31,7.53,3.36,9.52   C306.85,861.17,309.52,862.16,312.82,862.16z"/>
	<path class="st3" d="M354.89,874.66c-0.69,0-1.24-0.22-1.68-0.65c-0.44-0.43-0.65-0.99-0.65-1.68v-60.64   c0-0.68,0.22-1.24,0.65-1.68c0.43-0.43,0.99-0.65,1.68-0.65h25.38c8.02,0,14.35,1.85,18.98,5.55c4.63,3.7,6.95,8.94,6.95,15.72   c0,4.42-1.07,8.15-3.22,11.19c-2.15,3.05-4.96,5.35-8.44,6.9l12.87,22.95c0.19,0.37,0.28,0.72,0.28,1.03c0,0.5-0.2,0.95-0.61,1.35   c-0.41,0.41-0.89,0.61-1.45,0.61h-12.31c-1.18,0-2.05-0.29-2.61-0.89c-0.56-0.59-0.96-1.13-1.21-1.63l-10.63-20.52h-9.61v20.71   c0,0.69-0.22,1.24-0.65,1.68c-0.44,0.44-1,0.65-1.68,0.65H354.89z M369.26,838.47h10.82c2.92,0,5.12-0.71,6.58-2.15   c1.46-1.43,2.19-3.39,2.19-5.88c0-2.43-0.7-4.38-2.1-5.88s-3.62-2.24-6.67-2.24h-10.82V838.47z"/>
	<path class="st3" d="M419.36,874.66c-0.69,0-1.24-0.22-1.68-0.65c-0.44-0.43-0.65-0.99-0.65-1.68v-60.64   c0-0.68,0.22-1.24,0.65-1.68c0.43-0.43,0.99-0.65,1.68-0.65h24.26c6.09,0,11.29,0.98,15.58,2.94c4.29,1.96,7.59,4.82,9.89,8.58   c2.3,3.76,3.54,8.41,3.73,13.95c0.06,2.74,0.09,5.13,0.09,7.18c0,2.05-0.03,4.42-0.09,7.09c-0.25,5.78-1.48,10.57-3.68,14.37   c-2.21,3.79-5.41,6.61-9.61,8.44c-4.2,1.83-9.35,2.75-15.44,2.75H419.36z M433.72,861.23h9.89c2.67,0,4.9-0.42,6.67-1.26   c1.77-0.84,3.11-2.16,4.01-3.96c0.9-1.8,1.38-4.17,1.45-7.09c0.12-1.8,0.2-3.42,0.23-4.85c0.03-1.43,0.03-2.86,0-4.29   c-0.03-1.43-0.11-3.02-0.23-4.76c-0.13-4.23-1.23-7.32-3.31-9.28c-2.08-1.96-5.18-2.94-9.28-2.94h-9.42V861.23z"/>
	<path class="st3" d="M486.15,874.66c-0.69,0-1.24-0.22-1.68-0.65c-0.44-0.43-0.65-0.99-0.65-1.68v-60.64   c0-0.68,0.22-1.24,0.65-1.68c0.43-0.43,0.99-0.65,1.68-0.65h43.57c0.68,0,1.24,0.22,1.68,0.65c0.43,0.44,0.65,1,0.65,1.68v8.77   c0,0.69-0.22,1.25-0.65,1.68c-0.44,0.44-1,0.65-1.68,0.65h-29.76v12.59h27.71c0.68,0,1.24,0.23,1.68,0.7   c0.43,0.47,0.65,1.04,0.65,1.73v8.12c0,0.62-0.22,1.17-0.65,1.63c-0.44,0.47-1,0.7-1.68,0.7h-27.71v12.97h30.51   c0.68,0,1.24,0.22,1.68,0.65c0.43,0.44,0.65,1,0.65,1.68v8.77c0,0.69-0.22,1.24-0.65,1.68c-0.44,0.44-1,0.65-1.68,0.65H486.15z"/>
	<path class="st3" d="M545.76,874.66c-0.69,0-1.24-0.22-1.68-0.65c-0.44-0.43-0.65-0.99-0.65-1.68v-60.64   c0-0.68,0.22-1.24,0.65-1.68c0.43-0.43,0.99-0.65,1.68-0.65h25.38c8.02,0,14.35,1.85,18.98,5.55c4.63,3.7,6.95,8.94,6.95,15.72   c0,4.42-1.07,8.15-3.22,11.19c-2.15,3.05-4.96,5.35-8.44,6.9l12.87,22.95c0.19,0.37,0.28,0.72,0.28,1.03c0,0.5-0.2,0.95-0.61,1.35   c-0.41,0.41-0.89,0.61-1.45,0.61H584.2c-1.18,0-2.05-0.29-2.61-0.89c-0.56-0.59-0.96-1.13-1.21-1.63l-10.63-20.52h-9.61v20.71   c0,0.69-0.22,1.24-0.65,1.68c-0.44,0.44-1,0.65-1.68,0.65H545.76z M560.13,838.47h10.82c2.92,0,5.12-0.71,6.58-2.15   c1.46-1.43,2.19-3.39,2.19-5.88c0-2.43-0.7-4.38-2.1-5.88s-3.62-2.24-6.67-2.24h-10.82V838.47z"/>
	<path class="st3" d="M630.1,874.66c-0.69,0-1.24-0.22-1.68-0.65c-0.44-0.43-0.65-0.99-0.65-1.68v-60.64c0-0.68,0.22-1.24,0.65-1.68   c0.43-0.43,0.99-0.65,1.68-0.65h9.89c1.06,0,1.82,0.23,2.29,0.7c0.47,0.47,0.76,0.82,0.89,1.07l22.76,35.92v-35.36   c0-0.68,0.22-1.24,0.65-1.68c0.43-0.43,0.99-0.65,1.68-0.65h11.19c0.68,0,1.24,0.22,1.68,0.65c0.43,0.44,0.65,1,0.65,1.68v60.64   c0,0.62-0.22,1.17-0.65,1.63c-0.44,0.47-1,0.7-1.68,0.7h-9.98c-1,0-1.73-0.25-2.19-0.75c-0.47-0.5-0.76-0.84-0.89-1.03   l-22.76-34.52v33.96c0,0.69-0.22,1.24-0.65,1.68c-0.44,0.44-1,0.65-1.68,0.65H630.1z"/>
	<path class="st3" d="M721.52,875.59c-5.72,0-10.7-0.93-14.93-2.8c-4.23-1.87-7.53-4.68-9.89-8.44c-2.36-3.76-3.67-8.47-3.92-14.13   c-0.06-2.67-0.09-5.35-0.09-8.02c0-2.67,0.03-5.38,0.09-8.12c0.25-5.6,1.57-10.31,3.96-14.13c2.39-3.83,5.71-6.7,9.94-8.63   c4.23-1.93,9.17-2.89,14.83-2.89c5.6,0,10.53,0.97,14.79,2.89c4.26,1.93,7.6,4.8,10.03,8.63c2.43,3.82,3.73,8.54,3.92,14.13   c0.12,2.74,0.19,5.44,0.19,8.12c0,2.67-0.06,5.35-0.19,8.02c-0.25,5.66-1.56,10.37-3.92,14.13c-2.36,3.76-5.66,6.58-9.89,8.44   C732.21,874.66,727.24,875.59,721.52,875.59z M721.52,862.16c3.3,0,5.98-0.99,8.07-2.99c2.08-1.99,3.19-5.16,3.31-9.52   c0.12-2.74,0.19-5.32,0.19-7.74c0-2.43-0.06-4.94-0.19-7.56c-0.13-2.92-0.67-5.3-1.63-7.14c-0.96-1.83-2.29-3.19-3.96-4.06   c-1.68-0.87-3.61-1.31-5.78-1.31c-2.12,0-4.01,0.44-5.69,1.31c-1.68,0.87-3.02,2.22-4.01,4.06c-1,1.83-1.56,4.21-1.68,7.14   c-0.06,2.61-0.09,5.13-0.09,7.56c0,2.43,0.03,5.01,0.09,7.74c0.19,4.35,1.31,7.53,3.36,9.52   C715.55,861.17,718.22,862.16,721.52,862.16z"/>
	<path class="st3" d="M770.96,874.66c-1.06,0-1.9-0.31-2.52-0.93c-0.62-0.62-1-1.34-1.12-2.15l-10.17-59.61   c-0.06-0.12-0.09-0.25-0.09-0.37c0-0.12,0-0.22,0-0.28c0-0.5,0.2-0.95,0.61-1.35c0.4-0.4,0.85-0.61,1.35-0.61h11.57   c1.74,0,2.71,0.69,2.89,2.05l6.06,36.48l6.72-21.55c0.19-0.5,0.5-1.04,0.93-1.63c0.43-0.59,1.15-0.89,2.15-0.89h6.72   c1.06,0,1.8,0.3,2.24,0.89c0.43,0.59,0.71,1.14,0.84,1.63l6.72,21.46l6.06-36.38c0.19-1.37,1.15-2.05,2.89-2.05h11.57   c0.56,0,1.03,0.2,1.4,0.61c0.37,0.41,0.56,0.86,0.56,1.35c0,0.06,0,0.16,0,0.28c0,0.13,0,0.25,0,0.37l-10.17,59.61   c-0.12,0.81-0.5,1.52-1.12,2.15c-0.62,0.62-1.46,0.93-2.52,0.93h-8.86c-1.06,0-1.87-0.28-2.43-0.84c-0.56-0.56-0.93-1.09-1.12-1.59   l-9.42-26.68l-9.42,26.68c-0.19,0.5-0.55,1.03-1.07,1.59c-0.53,0.56-1.32,0.84-2.38,0.84H770.96z"/>
</g>
<line class="st4" x1="902.27" y1="817.17" x2="954.35" y2="817.17"/>
<line class="st4" x1="317.07" y1="977.93" x2="344.67" y2="977.93"/>
<line class="st4" x1="760.16" y1="1106.36" x2="794.91" y2="1106.36"/>
<line class="st4" x1="917.04" y1="1279.3" x2="944.74" y2="1279.3"/>
<circle class="st4" cx="883.95" cy="972.82" r="18.73"/>
<circle class="st4" cx="831.64" cy="615.67" r="20.67"/>
<circle class="st3" cx="263.94" cy="677.02" r="22.6"/>
</svg>