<?xml version="1.0" encoding="utf-8"?>
<!-- Generator: Adobe Illustrator 26.3.1, SVG Export Plug-In . SVG Version: 6.00 Build 0)  -->
<svg version="1.1" id="Layer_1" xmlns="http://www.w3.org/2000/svg" xmlns:xlink="http://www.w3.org/1999/xlink" x="0px" y="0px"
	 viewBox="0 0 1920 1080" style="enable-background:new 0 0 1920 1080;" xml:space="preserve">
<style type="text/css">
	.st0{fill:#EBEBEB;}
	.st1{fill:#E0E0E0;}
	.st2{fill:#F0F0F0;}
	.st3{fill:#F5F5F5;}
	.st4{opacity:0.3;fill:#FFFFFF;enable-background:new    ;}
	.st5{fill:#263339;}
	.st6{fill:#FFFFFF;}
	.st7{fill:#E2E1E1;}
	.st8{fill:#4C70B5;}
	.st9{fill:#ED771B;}
	.st10{fill:#454294;}
	.st11{fill:#261C6A;}
	.st12{fill:none;stroke:#263339;stroke-width:3;stroke-miterlimit:10;}
	.st13{fill:none;stroke:#263339;stroke-width:2;stroke-miterlimit:10;}
</style>
<g id="Group_41982_00000140732791704708668610000010134875184930537123_" transform="translate(21.368 -143)">
	<g id="Layer_2_00000098194239107287570160000017907323151951241876_" transform="translate(-21.368 143)">
		<g id="Robot_Parts_00000121961945544400716930000006681658723070202801_">
			
				<rect id="Rectangle_17621_00000060731715984638688370000003638176971081056649_" x="553.86" y="744.33" class="st0" width="856.13" height="0.42"/>
			
				<rect id="Rectangle_17622_00000078034917618710579850000018130042846990543255_" x="1287.09" y="771.88" class="st0" width="37.13" height="0.42"/>
			
				<rect id="Rectangle_17623_00000141413989217123374090000007438169584423555730_" x="1085.62" y="762.99" class="st0" width="58.4" height="0.42"/>
			
				<rect id="Rectangle_17624_00000140701300855486574940000016590956141030779577_" x="1232.93" y="755.99" class="st0" width="76.25" height="0.42"/>
			
				<rect id="Rectangle_17625_00000173871317026147128360000009504713564088964265_" x="831.04" y="764.62" class="st0" width="19.08" height="0.42"/>
			
				<rect id="Rectangle_17626_00000083811219681240982740000003269342734209875646_" x="750.05" y="764.62" class="st0" width="65.73" height="0.42"/>
			
				<rect id="Rectangle_17627_00000155111779345111876990000007937697481846321325_" x="667.4" y="757.39" class="st0" width="47.42" height="0.42"/>
			<path id="Path_49692_00000006704472423526666030000002583484417889565832_" class="st0" d="M959.66,782.95h-330.6
				c-5.4,0-9.77-4.37-9.77-9.77V308.42c0-5.4,4.38-9.77,9.77-9.77l0,0h330.6c5.4,0,9.77,4.38,9.77,9.77v464.76
				C969.45,778.58,965.06,782.95,959.66,782.95z M629.06,299.08c-5.16,0-9.35,4.19-9.35,9.35l0,0v464.76c0,5.16,4.19,9.35,9.35,9.35
				h330.6c5.16,0,9.35-4.19,9.35-9.35V308.42c0-5.16-4.19-9.35-9.35-9.35l0,0H629.06z"/>
			<path id="Path_49693_00000162309835886213194610000003436611060583660419_" class="st0" d="M1330.05,782.95H999.42
				c-5.4,0-9.77-4.37-9.77-9.77V308.42c0-5.4,4.38-9.77,9.77-9.77l0,0h330.63c5.38,0.02,9.75,4.38,9.75,9.77v464.76
				C1339.79,778.57,1335.44,782.93,1330.05,782.95z M999.42,299.08c-5.16,0-9.35,4.19-9.35,9.35v464.76c0,5.16,4.19,9.35,9.35,9.35
				h330.63c5.16,0,9.35-4.19,9.35-9.35V308.42c0-5.16-4.19-9.35-9.35-9.35H999.42z"/>
			<path id="Path_49698_00000101814878247462022160000007190742728572271016_" class="st1" d="M1210.41,384.89l-12.29-3.3
				l-3.28-12.26l4.81-4.81l5.07,10.5l10.51,5.07L1210.41,384.89z"/>
			<path id="Path_49699_00000034798593670382863210000014879802927917394097_" class="st1" d="M1211.17,376.68
				c2.37-2.1,2.6-5.73,0.49-8.1c-2.1-2.37-5.73-2.6-8.1-0.49c-0.18,0.16-0.33,0.32-0.49,0.49l6.12-9.15l8.21,4.14l1.72,8.56
				L1211.17,376.68z"/>
			<path id="Path_49700_00000121994270061313639540000009874414164762442884_" class="st2" d="M1198.66,365.42l9.01-9.01l12.26,3.35
				l3.3,12.26l-9.01,9.01l-12.26-3.3L1198.66,365.42z M1215.03,372.79c-0.02-2.24-1.84-4.03-4.07-4.02
				c-2.24,0.02-4.03,1.84-4.02,4.07c0.02,2.24,1.84,4.03,4.07,4.02c2.21-0.02,4.02-1.81,4.02-4.02V372.79z"/>
			<path id="Path_49701_00000093144592909435724050000002036551580525833883_" class="st1" d="M708.35,695.46l6.59-1.77l1.77-6.59
				l-2.56-2.56l-2.72,5.63l-5.65,2.72L708.35,695.46z"/>
			<path id="Path_49702_00000180357780938907016930000013428441524523699642_" class="st1" d="M707.96,691.06
				c-1.28-1.12-1.4-3.07-0.28-4.35c1.12-1.28,3.07-1.4,4.35-0.28c0.11,0.09,0.19,0.18,0.28,0.28l-3.28-4.91l-4.49,2.21l-0.96,4.63
				L707.96,691.06z"/>
			<path id="Path_49703_00000005250408750445258300000004637055849258107020_" class="st2" d="M714.65,685.06l-4.82-4.82l-6.59,1.72
				l-1.72,6.59l4.74,4.88l6.59-1.72L714.65,685.06z M705.88,689.04c-1.21-1.19-1.21-3.16,0-4.35c1.19-1.21,3.16-1.21,4.35,0
				c1.21,1.19,1.21,3.16,0,4.35l0,0C709.02,690.23,707.09,690.23,705.88,689.04L705.88,689.04z"/>
			<path id="Path_49704_00000026850467765654046330000017492050376840523683_" class="st2" d="M684.62,351.23l5.47,5.47
				c1.42,1.39,3.7,1.39,5.14,0l0,0c1.39-1.42,1.39-3.7,0-5.14l-5.47-5.47c-1.42-1.39-3.7-1.39-5.14,0l0,0
				C683.22,347.51,683.22,349.79,684.62,351.23z"/>
			
				<ellipse id="Ellipse_1413_00000155861531953374792200000008453887211330058663_" transform="matrix(0.9411 -0.3381 0.3381 0.9411 -76.3236 251.3433)" class="st1" cx="683.34" cy="344.77" rx="8.12" ry="7.61"/>
			
				<rect id="Rectangle_17628_00000096779314874268230670000005946251522215697836_" x="674.68" y="343.59" transform="matrix(0.9411 -0.3381 0.3381 0.9411 -76.3252 251.3394)" class="st2" width="17.29" height="2.35"/>
			
				<ellipse id="_Path__00000127008628608909910470000004935594319594705834_" class="st3" cx="981.93" cy="785.14" rx="331.98" ry="19.38"/>
			<path id="Path_49708_00000183970952838993836430000006834157479413379759_" class="st4" d="M1051.26,708.42h-0.21
				c-0.46-0.11-0.74-0.56-0.63-1.02c0-0.23,5.52-23.45-0.16-46.91c-0.09-0.47,0.23-0.93,0.7-1.02c0.44-0.09,0.88,0.19,1,0.63
				c3.38,15.71,3.44,31.97,0.16,47.72C1052.01,708.19,1051.66,708.45,1051.26,708.42z"/>
			<path id="Path_49709_00000057121212340799251060000008116289945642918068_" class="st4" d="M1046.47,647.61
				c-0.33,0-0.63-0.19-0.77-0.49c-2.14-4.7-4.86-9.1-8.12-13.12c-0.26-0.4-0.16-0.93,0.25-1.19c0.33-0.23,0.79-0.18,1.07,0.11
				c3.35,4.12,6.16,8.65,8.35,13.47c0.19,0.42,0.02,0.95-0.42,1.14C1046.74,647.6,1046.61,647.61,1046.47,647.61L1046.47,647.61z"/>
			<path id="Path_49713_00000109750037669155136190000013696853508324209330_" class="st5" d="M1224.41,722.66h-0.25
				c-0.46-0.14-0.72-0.61-0.58-1.07c2.28-7.94,4.77-12.78,8.05-15.5c-0.51-1.84-0.42-3.81,0.26-5.58c0.79-2.09,2.21-3.88,4.03-5.14
				c-1-1.1-1.39-2.63-1.02-4.07c0.61-2.14,1.89-4.03,3.67-5.4c-0.63-0.72-0.98-1.63-0.98-2.58c0-5.14,9.44-12.89,20.13-14.35
				c0.46-0.07,0.88,0.25,0.95,0.7c0,0.02,0,0.02,0,0.04c0.05,0.47-0.26,0.89-0.74,0.96c-10.17,1.39-18.69,8.75-18.66,12.64
				c0,0.58,0.21,1.12,0.61,1.54c4.67-3.14,10.38-4.3,15.89-3.19c5.26,1.02,7.4,2.12,7.14,3.72c-0.46,3-11.66,3.63-19.15,2.72
				c-1.35-0.12-2.65-0.49-3.86-1.1c-1.61,1.16-2.81,2.79-3.42,4.68c-0.3,1.02,0.05,2.12,0.86,2.81c4.24-1.96,9.07-2.31,13.56-1.02
				c7.77,1.72,8.07,2.67,8.24,3.23c0.12,0.4,0.02,0.84-0.28,1.12c-1.72,1.72-13.54,0.91-19.52-0.54c-0.72-0.18-1.4-0.42-2.05-0.77
				c-1.77,1.07-3.14,2.7-3.89,4.65c-0.49,1.25-0.61,2.61-0.39,3.95c0.3-0.19,0.61-0.35,0.95-0.49c3.54-1.72,7.82-1.4,13.1,0.86
				c3.42,1.51,5.14,2.82,5.31,4.17c0.02,0.7-0.35,1.37-0.98,1.72c-2.6,1.72-11.77,1.47-16.52-1.07c-1.1-0.6-2.02-1.47-2.63-2.54
				c-2.79,2.54-5.14,7.14-7.12,14.31C1225.04,722.36,1224.76,722.61,1224.41,722.66z M1233.7,706.69c0.47,0.89,1.21,1.61,2.09,2.09
				c3.88,2.05,11.47,2.53,14.31,1.37c0.58-0.25,0.67-0.42,0.67-0.42s-0.09-0.96-4.28-2.75c-4.79-2.05-8.56-2.35-11.7-0.89
				c-0.39,0.18-0.75,0.39-1.1,0.61H1233.7z M1239.4,695.44l0.44,0.12c5.58,1.28,11.31,1.7,16.99,1.26c-2.03-0.74-4.1-1.32-6.23-1.72
				C1246.93,694.11,1243.03,694.23,1239.4,695.44L1239.4,695.44z M1241.56,685.82c0.79,0.28,1.63,0.46,2.47,0.54
				c8.56,1.02,16.06-0.19,17.12-1.25c-1.74-1.02-3.68-1.63-5.7-1.82C1250.66,682.36,1245.7,683.26,1241.56,685.82L1241.56,685.82z"
				/>
			<path id="Path_49714_00000070824730951086431770000017072066053952700060_" class="st5" d="M907.49,771.46
				c1.12-0.37,0.75-1.46-0.51-1.46H883.8c-44.14-4.68-74.97,1.6-55.54,3.07c19.43,1.47-1.37,1.16-15.57,6.54
				c-14.21,5.38,105.56,6.73,116.43,0C939.13,773.42,891.84,776.46,907.49,771.46z"/>
			<path id="Path_49720_00000063591811623015603210000012092952394563831204_" class="st6" d="M1040.14,804.17
				c-0.65,0.02-1.28-0.26-1.72-0.74l-14.66-16.05l-15.82,14.45c-0.91,0.82-2.33,0.77-3.17-0.14l-14.66-16.05l-15.82,14.45
				c-0.91,0.82-2.33,0.77-3.17-0.14l-14.66-16.05l-15.82,14.45c-0.91,0.82-2.33,0.77-3.17-0.14l-14.66-16.05l-15.82,14.45
				c-0.89,0.86-2.31,0.82-3.17-0.07c-0.86-0.89-0.82-2.32,0.07-3.17c0.04-0.02,0.05-0.05,0.09-0.07l17.48-15.98
				c0.91-0.82,2.33-0.77,3.17,0.14l14.66,16.05l15.82-14.45c0.91-0.82,2.33-0.77,3.17,0.14l14.66,16.05l15.82-14.45
				c0.91-0.82,2.33-0.77,3.17,0.14l14.66,16.05l15.82-14.45c0.91-0.82,2.33-0.77,3.17,0.14l16.27,17.66
				c0.84,0.91,0.77,2.33-0.14,3.17c-0.42,0.39-0.98,0.6-1.56,0.6L1040.14,804.17z"/>
			<path id="Path_49721_00000109000670482358097370000004905492311275721659_" class="st7" d="M769.19,782.44l-10.72-5.1
				l-9.56-46.53l5.19-5.7L769.19,782.44z"/>
			<path id="Path_49722_00000109740456827254370000000003935047362358625460_" class="st8" d="M769.19,782.44l14.22-8.31
				l-12.19-38.32l-17.12-10.7L769.19,782.44z"/>
			<path id="Path_49723_00000059278976778317190050000000547152257654659730_" class="st9" d="M769.19,782.44l14.22-8.31
				l-12.19-38.32l-17.12-10.7L769.19,782.44z"/>
			<path id="Path_49726_00000044135842319093384620000000348553806140859275_" class="st8" d="M1001.44,802.27l7.3-7.26l4.52-35.83
				l-3.54-14.8L1001.44,802.27z"/>
			<path id="Path_49727_00000027593444848734394590000002795105448342448774_" class="st9" d="M1001.44,802.27l7.3-7.26l4.52-35.83
				l-3.54-14.8L1001.44,802.27z"/>
			<path id="Path_49729_00000152236731798885768060000012530009785124397239_" class="st5" d="M1205.85,783.1
				c-3.98,0-8.47-1.79-13.38-5.35c-2.31-1.63-2.88-4.84-1.25-7.16c1.63-2.32,4.84-2.88,7.16-1.25c0.04,0.04,0.07,0.05,0.12,0.09
				c4.24,3.07,6.56,3.42,7.37,3.42c2.84,0,5.14,2.3,5.14,5.14c0,2.84-2.3,5.14-5.14,5.14L1205.85,783.1z"/>
			<path id="Path_49730_00000117673398064165002490000001783278680565905042_" class="st7" d="M1193.91,777.61
				c5.49-16.33,28.02-13.1,35.78-10.68c6.65,1.93,13.01,4.7,18.96,8.23c4.19,2.74,4.26,7.35-1.33,9.96
				c-6.86,3.24-24.25,0.37-24.25,0.37c8.98,3.93,0,10.28-15.77,4.03C1202.19,787.5,1191.96,783.59,1193.91,777.61z"/>
			<circle id="Ellipse_1418_00000127729702761186536910000005509059150153053854_" class="st5" cx="927.67" cy="758.5" r="1.4"/>
			<circle id="Ellipse_1419_00000101806177247657253350000004642133914373601411_" class="st5" cx="940.53" cy="768.6" r="1.4"/>
			<path id="Path_49732_00000170977932788438519870000016144953380571960251_" class="st5" d="M695.14,785.45
				c-5-0.25-9.61-2.72-12.56-6.77c-0.3-0.37-0.23-0.91,0.14-1.21c0.37-0.3,0.91-0.23,1.21,0.14c0.02,0.04,0.04,0.05,0.05,0.09
				c3.21,4.61,10.28,7.07,13.38,5.61c0.3-0.14,0.58-0.33,0.81-0.58c-3.16-1.39-5.44-4.26-6.05-7.66c-0.39-2.17-0.7-5.14,1.09-5.52
				c2.46-0.54,5.66,5.4,6.86,9.89c0.21,0.74,0.3,1.53,0.23,2.3c1,0.28,2.03,0.37,3.07,0.25c0.93-0.07,1.77-0.54,2.35-1.28
				c-2.28-1.72-3.7-4.33-3.95-7.17c-0.67-4.68-0.18-5.49,0.37-5.89c0.33-0.26,0.79-0.32,1.17-0.14c1.84,0.79,4.05,7.42,4.47,11.19
				c0.05,0.39,0.05,0.79,0,1.17c0.74,0.28,1.53,0.44,2.31,0.44c1.46,0.05,2.88-0.33,4.12-1.09c-0.25-0.16-0.47-0.33-0.68-0.51
				c-1.89-1.96-2.72-4.74-2.19-7.42c0.25-2.68,0.84-4.14,1.91-4.61c0.72-0.28,1.53-0.12,2.07,0.4c2.33,2.6,3.4,6.09,2.91,9.54
				c-0.14,0.72-0.44,1.39-0.86,1.96c3.84,0.28,7.7-0.16,11.36-1.28c0.47-0.14,0.96,0.12,1.1,0.6c0.14,0.47-0.12,0.96-0.6,1.1
				c-0.04,0.02-0.07,0.02-0.11,0.02c-4.65,1.14-9.65,2.07-13.17,1.07c-1.72,1.32-3.82,2.02-6,1.98c-0.96-0.02-1.91-0.19-2.81-0.53
				c-0.81,1.25-2.16,2.05-3.63,2.17c-1.28,0.16-2.6,0.05-3.84-0.33c-0.4,0.67-1,1.19-1.72,1.53
				C697.11,785.29,696.13,785.49,695.14,785.45z M693.67,771.28c-0.21,1.14-0.18,2.31,0.14,3.42c0.49,2.79,2.3,5.16,4.86,6.35
				c-0.02-0.42-0.09-0.82-0.21-1.21C697.13,775,694.57,771.63,693.67,771.28L693.67,771.28z M703.21,769.79
				c0.02,1.17,0.12,2.37,0.32,3.53c0.18,2.09,1.1,4.05,2.6,5.52C705.68,775.67,704.7,772.6,703.21,769.79L703.21,769.79z
				 M713.98,768.3L713.98,768.3c0,0-0.65,0.33-0.89,3.19c-0.46,2.12,0.12,4.35,1.6,5.96c0.32,0.26,0.65,0.47,1.02,0.65
				c0.46-0.47,0.77-1.07,0.93-1.72c0.3-2.7-0.42-5.4-2.05-7.59C714.26,768.37,714.03,768.3,713.98,768.3L713.98,768.3z"/>
			<path id="Path_49733_00000079478602775819901190000012882213491468921002_" class="st5" d="M945.75,798.38l4.65-8.05l-4.65-8.03
				h-4.96l2.81,8.03l-2.81,8.05H945.75z"/>
			<path id="Path_49734_00000124842777079372830450000004057010352454285464_" class="st5" d="M941.11,794.54
				c-2.31,0.11-4.28-1.68-4.38-4c-0.11-2.31,1.68-4.28,4-4.38c0.12,0,0.25,0,0.37,0l-7.89-1.58l-2.09,6.37l3.53,5.38L941.11,794.54z
				"/>
			<path id="Path_49735_00000083770816688776321570000005175784151977745041_" class="st9" d="M941.79,782.3h-9.29l-4.65,8.05
				l4.65,8.05h9.29l4.65-8.05L941.79,782.3z M937.16,794.54c-2.31,0.02-4.21-1.86-4.21-4.17c-0.02-2.31,1.86-4.21,4.17-4.21
				c2.31-0.02,4.21,1.86,4.21,4.17v0.02C941.34,792.66,939.46,794.54,937.16,794.54z"/>
			<path id="Path_49736_00000151534738289390925660000007274902939931928965_" class="st9" d="M1269.39,781.75l-3.44-5.98l3.44-5.98
				h3.68l-2.07,5.98l2.07,5.98H1269.39z"/>
			<path id="Path_49737_00000018922387987604928490000016183888686312713355_" class="st10" d="M1272.85,778.89
				c1.72,0.12,3.21-1.16,3.33-2.88c0.12-1.72-1.16-3.21-2.88-3.33c-0.16-0.02-0.3-0.02-0.46,0l5.86-1.16l1.56,4.72l-2.61,3.98
				L1272.85,778.89z"/>
			<path id="Path_49738_00000147907844494640172510000013080869049894235780_" class="st5" d="M1272.34,769.81h6.86l3.42,5.98
				l-3.42,5.98h-6.86l-3.42-5.98L1272.34,769.81z M1275.78,778.89c-1.72,0-3.12-1.4-3.1-3.12c0-1.72,1.4-3.12,3.12-3.1
				c1.72,0.02,3.12,1.4,3.1,3.12C1278.9,777.49,1277.49,778.89,1275.78,778.89L1275.78,778.89z"/>
			<path id="Path_49739_00000165202442629863253880000001090066086380596610_" class="st5" d="M1141.07,789.7h7.73
				c2.02-0.02,3.65-1.65,3.67-3.67l0,0c-0.02-2.02-1.65-3.65-3.67-3.67h-7.73c-2.02,0.02-3.65,1.65-3.67,3.67l0,0
				C1137.42,788.05,1139.05,789.7,1141.07,789.7z"/>
			
				<ellipse id="Ellipse_1420_00000163035632205519346090000002361579565175586231_" transform="matrix(0.4264 -0.9045 0.9045 0.4264 -59.6135 1477.9735)" class="st9" cx="1135.56" cy="785.99" rx="8.12" ry="7.61"/>
			
				<rect id="Rectangle_17629_00000088836204027164126800000001083743321866692236_" x="1126.89" y="784.88" transform="matrix(0.4264 -0.9045 0.9045 0.4264 -59.6793 1477.9965)" class="st5" width="17.29" height="2.35"/>
		</g>
	</g>
</g>
<g>
	<path class="st11" d="M863.71,667.91h-16.11v25.78h-37.28v-25.78h-73.19v-34.06l51.32-101.27h39.59l-51.32,101.27h33.6v-34.52
		h37.28v34.52h16.11V667.91z"/>
</g>
<g>
	<path class="st11" d="M1220.71,667.91h-16.11v25.78h-37.28v-25.78h-73.19v-34.06l51.32-101.27h39.58l-51.32,101.27h33.6v-34.52
		h37.28v34.52h16.11V667.91z"/>
</g>
<path class="st12" d="M983,679v26c0,0,9-1,12,6s-13.05,13.06-24.02,9.53S988,703,999,723s-28,22-37,15s54.51-18.67,41.26,3.67
	C990,764,937.38,768.82,874.19,756.41C811,744,750,794,836,811"/>
<rect x="977" y="682" class="st9" width="12" height="13"/>
<path class="st5" d="M849.01,820.11l-10.57-3.04c-3.18-0.91-5.03-4.24-4.11-7.42l0,0c0.91-3.18,4.24-5.03,7.42-4.11l10.57,3.04
	L849.01,820.11z"/>
<line class="st13" x1="848" y1="811" x2="857" y2="813"/>
<line class="st13" x1="847" y1="816" x2="856" y2="818"/>
<g>
	<g>
		<g>
			<g>
				<g>
					<g>
						<path class="st9" d="M994.14,644.39l60.73,0c4.17,0,7.54,3.38,7.54,7.54l0,0c0,4.17-3.38,7.54-7.54,7.54l-60.73,0
							c-4.17,0-7.54-3.38-7.54-7.54l0,0C986.6,647.77,989.98,644.39,994.14,644.39z"/>
					</g>
				</g>
			</g>
			<g>
				<g>
					<g>
						<path class="st9" d="M1008.95,620.25l60.73,0c4.17,0,7.54,3.38,7.54,7.54l0,0c0,4.17-3.38,7.54-7.54,7.54l-60.73,0
							c-4.17,0-7.54-3.38-7.54-7.54l0,0C1001.41,623.63,1004.79,620.25,1008.95,620.25z"/>
					</g>
				</g>
			</g>
			<g>
				<g>
					<g>
						<path class="st9" d="M1023.76,596.11l60.73,0c4.17,0,7.54,3.38,7.54,7.54l0,0c0,4.17-3.38,7.54-7.54,7.54l-60.73,0
							c-4.17,0-7.54-3.38-7.54-7.54l0,0C1016.22,599.49,1019.6,596.11,1023.76,596.11z"/>
					</g>
				</g>
			</g>
			<g>
				<g>
					<g>
						<path class="st9" d="M1008.95,571.97h60.73c4.17,0,7.54,3.38,7.54,7.54l0,0c0,4.17-3.38,7.54-7.54,7.54l-60.73,0
							c-4.17,0-7.54-3.38-7.54-7.54l0,0C1001.41,575.35,1004.79,571.97,1008.95,571.97z"/>
					</g>
				</g>
			</g>
			<g>
				<g>
					<g>
						<path class="st9" d="M994.14,547.83l60.73,0c4.17,0,7.54,3.38,7.54,7.54l0,0c0,4.17-3.38,7.54-7.54,7.54h-60.73
							c-4.17,0-7.54-3.38-7.54-7.54v0C986.6,551.21,989.98,547.83,994.14,547.83z"/>
					</g>
				</g>
			</g>
		</g>
	</g>
</g>
<g>
	<g>
		<g>
			<g>
				<g>
					<g>
						<path class="st9" d="M960.54,562.92l-60.74,0c-4.17,0-7.54-3.38-7.54-7.54v0c0-4.17,3.38-7.54,7.54-7.54l60.74,0
							c4.17,0,7.54,3.38,7.54,7.54l0,0C968.08,559.54,964.71,562.92,960.54,562.92z"/>
					</g>
				</g>
			</g>
			<g>
				<g>
					<g>
						<path class="st9" d="M945.73,587.06l-60.74,0c-4.17,0-7.54-3.38-7.54-7.54v0c0-4.17,3.38-7.54,7.54-7.54l60.74,0
							c4.17,0,7.54,3.38,7.54,7.54v0C953.27,583.68,949.9,587.06,945.73,587.06z"/>
					</g>
				</g>
			</g>
			<g>
				<g>
					<g>
						<path class="st9" d="M930.92,611.2l-60.74,0c-4.17,0-7.54-3.38-7.54-7.54v0c0-4.17,3.38-7.54,7.54-7.54l60.74,0
							c4.17,0,7.54,3.38,7.54,7.54v0C938.46,607.82,935.09,611.2,930.92,611.2z"/>
					</g>
				</g>
			</g>
			<g>
				<g>
					<g>
						<path class="st9" d="M945.73,635.34l-60.74,0c-4.17,0-7.54-3.38-7.54-7.54v0c0-4.17,3.38-7.54,7.54-7.54l60.74,0
							c4.17,0,7.54,3.38,7.54,7.54l0,0C953.27,631.96,949.9,635.34,945.73,635.34z"/>
					</g>
				</g>
			</g>
			<g>
				<g>
					<g>
						<path class="st9" d="M960.54,659.48l-60.74,0c-4.17,0-7.54-3.38-7.54-7.54l0,0c0-4.17,3.38-7.54,7.54-7.54l60.74,0
							c4.17,0,7.54,3.38,7.54,7.54l0,0C968.08,656.1,964.71,659.48,960.54,659.48z"/>
					</g>
				</g>
			</g>
		</g>
	</g>
</g>
</svg>
